<svg width="902" height="360" viewBox="0 0 902 360" fill="none" xmlns="http://www.w3.org/2000/svg">
<path d="M120.421 138.231L119.501 137.256L119.558 138.595C119.809 144.599 119.814 258.526 119.814 269H91.5V91H118.299L241.579 221.769L242.499 222.744L242.442 221.405C242.191 215.398 242.186 101.617 242.186 91H270.5V269H243.702L120.421 138.231ZM660.314 270H660.814V269.5V192.519H723.311L777.419 269.787L777.568 270H777.829H811H811.961L811.41 269.213L747.322 177.695L806.784 90.7823L807.319 90H806.371H773.2H772.933L772.785 90.2213L722.791 164.669H660.814V90.5V90H660.314H631H630.5V90.5V269.5V270H631H660.314ZM181 359.5C280.685 359.5 361.5 279.138 361.5 180C361.5 80.8623 280.685 0.5 181 0.5C81.3152 0.5 0.5 80.8623 0.5 180C0.5 279.138 81.3152 359.5 181 359.5ZM873.5 180C873.5 263.751 805.226 331.65 721 331.65C636.774 331.65 568.5 263.751 568.5 180C568.5 96.2486 636.774 28.35 721 28.35C805.226 28.35 873.5 96.2486 873.5 180ZM721 359.5C820.685 359.5 901.5 279.138 901.5 180C901.5 80.8623 820.685 0.5 721 0.5C621.315 0.5 540.5 80.8623 540.5 180C540.5 279.138 621.315 359.5 721 359.5Z" stroke="white" stroke-opacity="0.1"/>
</svg>
