<svg xmlns="http://www.w3.org/2000/svg" width="100" height="40" viewBox="0 0 100 40"><g><g><path fill="#cd4138" d="M0 20C0 8.954 8.954 0 20 0s20 8.954 20 20-8.954 20-20 20S0 31.046 0 20zm26.943 10H30V10h-3.257c0 .743 0 13.943.028 14.629L13.057 10H10v20h3.257c0-.714 0-13.943-.028-14.629zM80 37c9.389 0 17-7.611 17-17S89.389 3 80 3s-17 7.611-17 17 7.611 17 17 17zM60 20C60 8.954 68.954 0 80 0s20 8.954 20 20-8.954 20-20 20-20-8.954-20-20zm10 10V10h3.257v8.343h6.972L85.8 10h3.686l-6.629 9.743L90 30h-3.686l-6.028-8.657h-7.029V30z"/></g></g></svg>