<svg width="402" height="162" viewBox="0 0 402 162" fill="none" xmlns="http://www.w3.org/2000/svg">
<path d="M54.2791 62.1437L53.3587 61.162L53.4147 62.5065C53.5243 65.1372 53.5284 114.386 53.5286 120.5H41.5V41.5H53.012L107.721 99.8563L108.641 100.838L108.585 99.4935C108.476 96.8611 108.472 47.6598 108.471 41.5H120.5V120.5H108.988L54.2791 62.1437ZM294.029 121.5H294.529V121V86.8714H321.882L345.847 121.286L345.996 121.5H346.257H361H361.957L361.41 120.714L333.036 79.9681L359.356 41.2813L359.888 40.5H358.943H344.2H343.933L343.784 40.7223L321.647 73.8714H294.529V41V40.5H294.029H281H280.5V41V121V121.5H281H294.029ZM81 161.5C125.459 161.5 161.5 125.459 161.5 81C161.5 36.5411 125.459 0.5 81 0.5C36.5411 0.5 0.5 36.5411 0.5 81C0.5 125.459 36.5411 161.5 81 161.5ZM388.5 81C388.5 118.279 358.279 148.5 321 148.5C283.721 148.5 253.5 118.279 253.5 81C253.5 43.7208 283.721 13.5 321 13.5C358.279 13.5 388.5 43.7208 388.5 81ZM321 161.5C365.459 161.5 401.5 125.459 401.5 81C401.5 36.5411 365.459 0.5 321 0.5C276.541 0.5 240.5 36.5411 240.5 81C240.5 125.459 276.541 161.5 321 161.5Z" stroke="#CD4138"/>
</svg>
