<svg width="42" height="76" viewBox="0 0 42 76" fill="none" xmlns="http://www.w3.org/2000/svg">
<g filter="url(#filter0_d)">
<path d="M22.9048 8.28081C23.4127 8.0936 23.873 8 24.2857 8C25.3968 8 26.2064 8.48362 26.7143 9.45086C26.9683 10.2621 27.1587 11.3229 27.2857 12.6334C27.4127 13.9438 27.4762 15.0827 27.4762 16.0499V18.2496C28.7778 20.4337 30.0635 23.7566 31.3333 28.2184C32.6032 32.6802 33.4921 35.5507 34 36.83C34 39.7941 33.5079 42.727 32.5238 45.6287C31.5714 48.5304 30.7778 50.9329 30.1429 52.8362C29.5397 53.8034 29.127 54.9579 28.9048 56.2995C28.6825 57.6412 28.5714 59.1388 28.5714 60.7925V63.507C27.7778 64.5991 26.7619 65.5195 25.5238 66.2683C24.2857 66.986 22.4127 67.5632 19.9048 68L13.3333 66.1747C13.3333 65.4259 13.1746 64.209 12.8571 62.5242C12.5397 60.8081 12.381 59.6225 12.381 58.9672C11.0159 57.6256 10.0952 56.2371 9.61905 54.8019C9.1746 53.3666 8.63492 50.8393 8 47.22C8 44.7863 8.1746 42.4774 8.52381 40.2933C8.87302 38.1092 9.44444 35.8159 10.2381 33.4134C11.2857 32.883 12.3175 32.337 13.3333 31.7754C13.2063 30.9953 13.1429 30.3869 13.1429 29.9501C13.1429 29.2949 13.3175 28.7176 13.6667 28.2184C14.0476 27.7192 14.5238 27.3604 15.0952 27.142C15.6984 26.8924 16.4444 26.7675 17.3333 26.7675H18.3333C18.7143 27.1732 19.0635 27.6412 19.381 28.1716C19.7302 28.702 20.0635 29.2949 20.381 29.9501C20.6349 29.2949 20.7937 28.3432 20.8571 27.0952C20.9206 25.8159 20.9524 25.0671 20.9524 24.8487L21.4286 20.2621C20.8571 18.4836 20.3016 16.6583 19.7619 14.7863C19.7619 13.7254 20.2222 12.8986 21.1429 12.3058C21.2698 11.2137 21.4127 10.3557 21.5714 9.73167C21.7302 9.07644 22.1746 8.59282 22.9048 8.28081ZM23.1905 8.65523C22.2698 9.49766 21.9206 10.5897 22.1429 11.9314C23.0317 11.9314 23.873 12.415 24.6667 13.3822C25.2381 14.2558 25.8571 15.1139 26.5238 15.9563V13.5694C26.5238 12.103 26.4286 11.0109 26.2381 10.2933C26.0476 9.54446 25.6349 9.07644 25 8.88924C24.3968 8.67083 23.7937 8.59282 23.1905 8.65523ZM21.7143 12.5866C20.8254 13.2418 20.381 13.975 20.381 14.7863C20.381 15.3167 20.6667 16.2059 21.2381 17.454C21.8413 18.702 22.1429 19.4821 22.1429 19.7941C22.3968 20.4181 22.7778 20.7301 23.2857 20.7301C24.5238 20.3557 25.7619 19.9813 27 19.6069L25.4286 15.9563C24.9206 15.2387 24.381 14.5055 23.8095 13.7566C23.2698 12.9766 22.5714 12.5866 21.7143 12.5866ZM27.381 20.2621C26.619 20.0749 25.8889 20.1529 25.1905 20.4961C24.5238 20.8393 23.8889 21.1825 23.2857 21.5257C23.0952 21.9002 23 22.2122 23 22.4618C23 23.0546 23.1587 23.6162 23.4762 24.1466C23.8254 24.6771 24.1587 25.2075 24.4762 25.7379L28.2857 24.4743L28.5714 24.6615L26.7143 25.4571L29.3333 24.9423C29.1429 24.1934 29.0159 23.6318 28.9524 23.2574L27.381 20.2621ZM21.9524 21.9002L22.1429 22.9298C22.2698 22.805 22.3016 22.6178 22.2381 22.3682C22.1746 22.1186 22.0794 21.9626 21.9524 21.9002ZM21.8095 23.819C21.6825 24.131 21.5873 24.6615 21.5238 25.4103C21.4603 26.1279 21.4286 26.6427 21.4286 26.9548V29.4821L24.2857 29.3885C24.1587 28.4212 24 27.688 23.8095 27.1888C23.6508 26.6583 23.2222 25.5351 22.5238 23.819H21.8095ZM29.5238 25.7379C29.3333 25.6755 29.0476 25.6443 28.6667 25.6443C27.9365 25.6443 27.2698 25.7379 26.6667 25.9251C26.0952 26.1123 25.3968 26.4243 24.5714 26.8612C24.8254 28.2028 25.0317 29.1232 25.1905 29.6225C25.3492 30.0905 25.6984 30.5429 26.2381 30.9797C26.4921 30.9173 26.873 30.8861 27.381 30.8861C27.8571 30.8861 28.4762 30.9953 29.2381 31.2137C30.0317 31.4009 30.7143 31.5569 31.2857 31.6817L30.9048 29.9501L29.5238 25.7379ZM15.2857 27.6568C14.3333 28.3432 13.9206 29.17 14.0476 30.1373C14.9365 29.0452 16.0952 28.4992 17.5238 28.4992C18.127 28.4992 18.5556 28.624 18.8095 28.8736C18.5556 27.8752 17.873 27.376 16.7619 27.376C16.3175 27.376 15.8254 27.4696 15.2857 27.6568ZM16.9524 29.4821C16.5079 29.6069 16.1111 29.8253 15.7619 30.1373C15.4444 30.4493 15.127 30.9017 14.8095 31.4945C14.5556 31.9314 14.619 32.2122 15 32.337C15.381 32.4618 16 32.6178 16.8571 32.805C16.7302 32.4306 16.8413 32.0562 17.1905 31.6817C17.5397 31.3073 17.9206 30.9173 18.3333 30.5117C17.8571 30.1997 17.3968 29.8565 16.9524 29.4821ZM22.7143 29.8565C22.3333 29.9813 22.0159 30.0749 21.7619 30.1373C21.5397 30.1997 21.3968 30.3245 21.3333 30.5117C21.6508 30.6989 22.0476 30.7301 22.5238 30.6053C23.0317 30.4805 23.5556 30.3245 24.0952 30.1373C23.2381 29.9501 22.7778 29.8565 22.7143 29.8565ZM19.6667 30.9797C19.2857 31.6973 18.9683 32.2122 18.7143 32.5242C18.4603 32.8362 18.0952 33.1638 17.619 33.507C17.1111 33.819 16.4762 33.7566 15.7143 33.3198C14.9841 32.8518 14.4921 32.6802 14.2381 32.805V33.4134C15.6032 35.1919 16.8889 36.3931 18.0952 37.0172C19.3016 37.61 20.4127 37.8128 21.4286 37.6256C21.4286 37.8752 21.2381 38.0624 20.8571 38.1872C20.6667 38.6864 20.7937 39.1388 21.2381 39.5445C21.7143 39.9189 22.1429 40.2621 22.5238 40.5741C22.3968 40.6989 22.2857 40.7769 22.1905 40.8081C22.0952 40.8393 22.0159 40.8549 21.9524 40.8549C22.0159 41.4477 22.2857 42.0406 22.7619 42.6334C23.2381 43.195 23.6032 43.6318 23.8571 43.9438L23.6667 44.131C22.9683 43.8814 22.3651 43.4134 21.8571 42.727C21.381 42.0094 21.0476 41.4633 20.8571 41.0889C18.7619 43.7722 17.7143 46.8612 17.7143 50.3557C17.7143 52.415 18.0794 54.1778 18.8095 55.6443C19.254 55.7067 20.0317 55.8627 21.1429 56.1123C22.254 56.3619 23.0635 56.4867 23.5714 56.4867C24.1746 56.4867 24.7619 56.3931 25.3333 56.2059C27.3651 55.0515 28.5714 53.5694 28.9524 51.7597C29.3333 49.9189 29.5238 47.376 29.5238 44.131C29.4603 44.2558 29.3492 44.3495 29.1905 44.4119C29.0317 44.4743 28.8571 44.5367 28.6667 44.5991C28.9841 44.1622 29.254 43.6942 29.4762 43.195C29.6984 42.6646 29.8095 42.181 29.8095 41.7441C29.8095 41.4945 29.7778 41.2761 29.7143 41.0889L24.5714 34.6303L23.1905 36.2683C22.4286 36.5803 21.9365 36.6115 21.7143 36.3619L24 33.4134C23.6508 33.0078 22.9365 32.5554 21.8571 32.0562C20.8095 31.5569 20.0794 31.1981 19.6667 30.9797ZM22.7143 31.2137C22.7143 31.4633 22.9524 31.6505 23.4286 31.7754C23.9365 31.9002 24.127 31.7129 24 31.2137H22.7143ZM17.619 32.4306C18.3492 32.0562 18.619 31.6817 18.4286 31.3073C18.2381 31.3697 18.0159 31.5413 17.7619 31.8222C17.5397 32.103 17.4921 32.3058 17.619 32.4306ZM28.2857 31.5881L27 31.3073L26.8095 31.4945L28.2857 31.5881ZM24.6667 31.4945C24.5397 31.6193 24.4444 31.8066 24.381 32.0562C24.3175 32.3058 24.381 32.493 24.5714 32.6178C24.8254 32.6178 25.2381 32.337 25.8095 31.7754C25.5556 31.5257 25.1746 31.4321 24.6667 31.4945ZM31.6667 32.9922C31.4762 32.9298 30.8571 32.7582 29.8095 32.4774C28.7937 32.1966 28.0159 32.0562 27.4762 32.0562C26.7143 32.0562 26.0952 32.3058 25.619 32.805C25.4921 33.3354 25.6349 33.897 26.0476 34.4899C26.4921 35.0515 26.8413 35.5507 27.0952 35.9875C27.3492 36.4243 27.8413 36.6427 28.5714 36.6427C29.0159 36.6427 29.6825 36.4867 30.5714 36.1747C31.4921 35.8627 32.1905 35.7067 32.6667 35.7067L32.381 34.0686L31.6667 32.9922ZM12.7619 32.805C12.0317 33.1482 11.3968 33.4914 10.8571 33.8346C10.3175 34.1778 10.0476 34.7707 10.0476 35.6131C9.85714 35.9251 9.7619 36.2683 9.7619 36.6427C9.7619 37.1108 9.88889 37.532 10.1429 37.9064C10.3968 38.2808 10.746 38.468 11.1905 38.468C10.619 37.844 10.2857 37.4228 10.1905 37.2044C10.0952 36.9548 10.1111 36.6739 10.2381 36.3619L10.619 36.4555C10.619 36.3307 10.619 36.0811 10.619 35.7067C10.619 35.3323 10.746 35.0983 11 35.0047C11.381 37.0016 11.9365 38.6708 12.6667 40.0125C13.3968 41.3541 13.9683 42.3838 14.381 43.1014C14.7937 43.7878 15.3016 44.1934 15.9048 44.3183C15.619 44.131 15.4762 43.7566 15.4762 43.195V42.1186C15.6032 41.2761 16.0952 40.9953 16.9524 41.2761C16.8254 40.3089 16.746 39.5289 16.7143 38.936C16.6825 38.312 16.5397 37.6724 16.2857 37.0172C15.8095 36.7051 15.3333 36.2683 14.8571 35.7067C14.381 35.1139 13.6825 34.1466 12.7619 32.805ZM23.381 35.4259L24 34.3495L23.0952 35.5195L23.381 35.4259ZM32.6667 36.4555C31.3016 36.4555 29.873 36.7831 28.381 37.4384L29.5238 38.936C30.1905 38.936 30.873 38.7332 31.5714 38.3276C32.3016 37.922 32.8254 37.6568 33.1429 37.532L32.6667 36.4555ZM17.8571 40.7613C17.9841 39.4197 18.2381 38.5616 18.619 38.1872C18.2381 38 17.9206 37.9376 17.6667 38C17.4444 38.0624 17.3333 38.2184 17.3333 38.468C17.4603 39.248 17.6349 40.0125 17.8571 40.7613ZM32.0952 38.7488H32.4762C32.6032 39.092 32.3333 39.3885 31.6667 39.6381C31.0317 39.8877 30.6825 40.1685 30.619 40.4805C30.873 41.0733 31 41.869 31 42.8674C30.9365 44.5523 30.873 46.1903 30.8095 47.7816C31.381 45.6599 31.8571 43.8502 32.2381 42.3526C32.6508 40.8549 32.9524 39.5601 33.1429 38.468C32.8254 38.4056 32.5873 38.4212 32.4286 38.5148C32.2698 38.6084 32.1587 38.6864 32.0952 38.7488ZM11.381 39.5445C11.254 39.4821 11 39.2948 10.619 38.9828C10.2381 38.6396 9.90476 38.624 9.61905 38.936C9.55556 39.3417 9.38095 40.2933 9.09524 41.791C8.80952 43.2886 8.66667 44.4587 8.66667 45.3011V46.3307C9.30159 49.1388 9.85714 51.5413 10.3333 53.5382C10.8413 55.5039 11.8095 57.1264 13.2381 58.4056H14.4286C15.4127 58.4056 16.2698 58.2964 17 58.078C17.7619 57.8596 18.3968 57.4228 18.9048 56.7675C17.6032 54.3651 16.9524 51.8534 16.9524 49.2324C16.9524 47.8908 17.1111 46.7675 17.4286 45.8627C17.1746 46.3619 16.9365 46.8924 16.7143 47.454C16.4921 47.9844 16.4127 48.468 16.4762 48.9048C16.5397 49.4353 16.5714 49.8253 16.5714 50.0749C16.5714 50.3869 16.4762 50.6053 16.2857 50.7301C15.8095 50.2309 15.5714 49.6225 15.5714 48.9048C15.5714 48.2808 15.6825 47.6568 15.9048 47.0328C16.1587 46.3775 16.4127 45.7379 16.6667 45.1139L15.9048 45.3011C15.4286 44.8331 15 44.5991 14.619 44.5991C14.1746 44.5991 13.6984 44.9579 13.1905 45.6755C12.7143 46.3619 12.381 46.7675 12.1905 46.8924L12 46.6115L13.7619 44.0374C13.2857 43.4134 12.8571 42.6958 12.4762 41.8846C12.0952 41.0733 11.7302 40.2933 11.381 39.5445ZM18.9048 39.7317C18.5873 40.0437 18.619 40.7457 19 41.8378C19.254 41.7753 19.4762 41.6349 19.6667 41.4165C19.8889 41.1981 20.1587 40.7301 20.4762 40.0125C20.3492 39.7629 20.0952 39.6537 19.7143 39.6849C19.3651 39.7161 19.0952 39.7317 18.9048 39.7317ZM16.5714 42.2122C16.1905 42.337 16.0317 42.5866 16.0952 42.961C16.2222 43.3042 16.381 43.6318 16.5714 43.9438C17.0794 43.7566 17.3651 43.429 17.4286 42.961C17.3651 42.7738 17.2857 42.5554 17.1905 42.3058C17.0952 42.0562 16.8889 42.025 16.5714 42.2122ZM25.9524 57.0952H26.7143C26.7143 56.9392 26.7143 56.7675 26.7143 56.5803C26.2698 56.4555 26.0159 56.6271 25.9524 57.0952ZM26.2381 63.8814C26.4286 62.7894 26.5238 61.8222 26.5238 60.9797C26.4603 59.5757 26.4286 58.468 26.4286 57.6568C26.1111 58.8112 25.9524 59.9969 25.9524 61.2137C25.9524 62.2122 26.0476 63.1014 26.2381 63.8814ZM21.2381 58.4056C21.1746 58.156 21.0635 58.0624 20.9048 58.1248C20.746 58.1872 20.6032 58.2496 20.4762 58.312V66.6427C20.6032 66.6427 20.8571 66.6115 21.2381 66.5491V58.4056ZM21.8095 58.4056C21.8095 59.0608 21.7937 59.7317 21.7619 60.4181C21.7302 61.0733 21.7143 61.7441 21.7143 62.4306C21.7143 63.9594 21.8571 65.2699 22.1429 66.3619L23.381 66.1747C24.2381 65.9875 24.8413 65.6443 25.1905 65.1451C25.5397 64.6147 25.7143 63.975 25.7143 63.2262C25.7143 62.6958 25.619 61.8222 25.4286 60.6053C25.2381 59.3885 25.2064 58.5304 25.3333 58.0312L21.8095 58.4056ZM19.5714 58.312C19.5714 59.2792 19.5397 60.2309 19.4762 61.1669C19.4127 62.0718 19.3492 62.9766 19.2857 63.8814C19.2857 64.8487 19.381 65.8003 19.5714 66.7363C19.9841 64.8955 20.1905 63.1482 20.1905 61.4945L20 58.312H19.5714ZM16.4762 59.8565C16.0952 60.0437 15.5714 60.1373 14.9048 60.1373C14.3333 60.1373 13.9524 59.9189 13.7619 59.4821C13.7619 60.3557 13.8254 61.4009 13.9524 62.6178C14.0794 63.8346 14.2063 64.8955 14.3333 65.8003L18.619 66.6427C18.6825 66.2683 18.746 65.4571 18.8095 64.209C18.873 62.961 18.9048 62.3058 18.9048 62.2434V58.6864L16.4762 59.8565ZM16.4762 51.0577L17.8571 54.8487C17.5714 54.6615 17.3175 54.2558 17.0952 53.6318C16.873 52.9766 16.6667 52.3682 16.4762 51.8065V51.0577ZM20.9524 36.4555C21.1429 35.8939 21.4921 35.3323 22 34.7707C22.5397 34.1778 23.127 33.7254 23.7619 33.4134C23.1905 33.7878 22.6508 34.3027 22.1429 34.9579C21.6667 35.5819 21.2698 36.0811 20.9524 36.4555ZM23.0952 36.83C23.2222 36.3307 23.6825 35.8939 24.4762 35.5195C24.3492 35.8939 23.8889 36.3307 23.0952 36.83Z" fill="#CD4138"/>
</g>
<defs>
<filter id="filter0_d" x="0" y="0" width="42" height="76" filterUnits="userSpaceOnUse" color-interpolation-filters="sRGB">
<feFlood flood-opacity="0" result="BackgroundImageFix"/>
<feColorMatrix in="SourceAlpha" type="matrix" values="0 0 0 0 0 0 0 0 0 0 0 0 0 0 0 0 0 0 127 0"/>
<feOffset/>
<feGaussianBlur stdDeviation="4"/>
<feColorMatrix type="matrix" values="0 0 0 0 0.803922 0 0 0 0 0.254902 0 0 0 0 0.219608 0 0 0 0.9 0"/>
<feBlend mode="normal" in2="BackgroundImageFix" result="effect1_dropShadow"/>
<feBlend mode="normal" in="SourceGraphic" in2="effect1_dropShadow" result="shape"/>
</filter>
</defs>
</svg>
