<svg xmlns="http://www.w3.org/2000/svg" width="94" height="80" viewBox="0 0 94 80"><g><g><path fill="#cd4138" d="M0 3.872c0-1.098.408-2.005 1.225-2.719C2.096.384 3.158 0 4.41 0c.653 0 1.307.165 1.96.494 1.797 2.856 4.737 6.4 8.82 10.629 4.138 4.174 6.67 6.893 7.595 8.156 0-1.373.463-2.581 1.389-3.625.98-1.099 2.123-1.648 3.43-1.648.708-.22 1.606-.165 2.695.165 1.143.33 1.933.384 2.368.165.545-1.758 1.742-3.049 3.594-3.873 1.85-.878 3.756-1.318 5.716-1.318 1.362.77 2.314 1.154 2.859 1.154.544 0 .87-.44.98-1.319.49-1.483 1.524-2.416 3.103-2.8 1.634-.385 3.566-.578 5.799-.578 2.45 1.429 4.519 3.57 6.206 6.427 1.688 2.801 3.077 5.108 4.166 6.92-.218.88.081 2.225.898 4.038.871 1.812 1.307 2.883 1.307 3.213 3.865-4.944 7.295-9.063 10.29-12.359 3.049-3.35 6.533-5.025 10.453-5.025 1.198 0 2.423.247 3.675.741 1.307.494 2.07 1.868 2.287 4.12-.109.659-.735 1.263-1.878 1.812a139.818 139.818 0 0 1-3.594 1.566c-1.252 1.373-2.586 3.79-4.001 7.25-1.362 3.405-2.478 5.602-3.349 6.591-1.797 3.24-3.267 7.003-4.41 11.287a1498.946 1498.946 0 0 1-7.268 9.805c-2.505 3.35-5.091 6.097-7.759 8.239a6.073 6.073 0 0 0-.653 1.812 11.7 11.7 0 0 0-.164 2.06c0 .604.055 1.483.164 2.636.109 1.099.163 1.978.163 2.637s-.054 1.208-.163 1.648c-1.361 1.483-2.396 2.581-3.104 3.295-.707.66-2.804 2.28-6.288 4.861-.544.22-1.388.412-2.532.577a23.5 23.5 0 0 1-3.511.247c-2.56 0-5.064-.33-7.514-.989-2.45-.714-5.009-1.73-7.677-3.048-.435-1.263-.816-2.856-1.143-4.779a115.988 115.988 0 0 1-.817-5.85c-2.94-3.405-5.308-7.854-7.105-13.346a5651.877 5651.877 0 0 0-6.615-24.635C10.426 22.52 6.86 18.455 4.083 15.16 1.361 11.81 0 8.047 0 3.872zm1.552-1.318c-.218 1.099-.327 1.95-.327 2.554a9.87 9.87 0 0 0 1.307 4.944c.87 1.537 2.15 3.075 3.838 4.613.817.11 1.633-.164 2.45-.824l2.45-1.977c-.272.769-.653 1.346-1.143 1.73-.49.385-1.334.989-2.532 1.813.436 1.977 1.525 3.543 3.267 4.696.272-.769 1.034-1.867 2.287-3.296 1.306-1.428 1.96-2.581 1.96-3.46a55.395 55.395 0 0 0-1.634-1.73c-.49-.55-.953-.824-1.388-.824-.327 0-.653.302-.98.906l.653-2.06c-.326-.329-1.28-1.812-2.858-4.448-1.58-2.637-3.022-3.955-4.329-3.955-1.034 0-2.041.44-3.021 1.318zm51.532 4.037c-1.796.33-3.348.714-4.655 1.154-1.252.384-1.933 1.29-2.042 2.718l.654 15.407c.871.33 2.069.357 3.593.083 1.525-.33 2.396-.495 2.614-.495-1.58 1.264-3.54 1.895-5.88 1.895.108.66.408 1.648.898 2.966.49 1.264.79 2.088.898 2.472l2.532-.906c1.143-.33 2.096.055 2.858 1.153a388.29 388.29 0 0 0 1.879 2.554c.87-2.801 1.36-6.976 1.47-12.523.109-5.603.272-9.338.49-11.205.653.44 1.034 1.29 1.143 2.554.109 1.208.245 2.362.408 3.46l1.47-2.471a15.25 15.25 0 0 0-3.266-4.861c-1.416-1.483-3.104-2.801-5.064-3.955zm-11.433 3.543c-2.015.33-3.594.741-4.737 1.236-1.089.44-2.069 1.318-2.94 2.636.871 6.976 1.77 12.166 2.695 15.572.98 3.35 2.994 6.426 6.043 9.227 0-.44.273-.824.817-1.153.545-.33.926-.55 1.143-.66 1.035-.439 1.879-.521 2.532-.246.653.274 1.606.796 2.859 1.565l-3.022-6.426c-1.035.714-1.96 1.235-2.777 1.565-.817.33-1.797.494-2.94.494-.218.11-.435.028-.653-.247-.218-.274-.327-.467-.327-.577.436-.22 1.443-.494 3.022-.823 1.633-.385 2.75-.852 3.348-1.401a19.842 19.842 0 0 1-1.47-4.943c-.272-1.758-.408-3.818-.408-6.18v-3.707c0-1.263.054-2.5.163-3.708-.544-1.483-1.66-2.224-3.348-2.224zm49.736.33c-.6-.11-1.443-.165-2.532-.165-2.995 0-5.662.879-8.004 2.636-2.34 1.758-4.464 4.037-6.37 6.838-.109.66.409 1.593 1.552 2.802 1.198 1.153 1.552 2.06 1.062 2.719-.871 0-1.715-.55-2.532-1.648-.762-1.154-1.307-1.84-1.633-2.06a39.1 39.1 0 0 0-2.124 2.142c-.707.824-1.878 2.527-3.511 5.108a95.243 95.243 0 0 0 1.796 5.108c.654 1.703 1.606 3.049 2.859 4.037-1.361-.549-2.45-1.51-3.267-2.883-.817-1.428-1.688-3.268-2.613-5.52-.872.549-1.307 1.373-1.307 2.471v3.378c-.11-.659-.381-1.043-.817-1.153 0 .769.109 1.593.327 2.472.218.824.49 1.812.817 2.966-1.362-2.252-2.042-4.751-2.042-7.498l-4.655 2.554c-.11.77-.463 1.51-1.062 2.225a23.09 23.09 0 0 1-1.633 1.648c-1.525-.33-3.076.247-4.655 1.73-1.58 1.428-2.913 2.197-4.002 2.307-1.47.604-2.56 1.647-3.267 3.13-.708 1.428-1.361 3.269-1.96 5.52a472.91 472.91 0 0 0 2.123 4.614c.49.989 1.307 2.197 2.45 3.625 1.852.33 3.784.495 5.799.495 2.559 0 4.846-.165 6.86-.494 2.341-.88 4.819-2.912 7.432-6.097a595.048 595.048 0 0 0 8.657-10.793c1.089-3.68 1.96-6.427 2.613-8.24.708-1.812 1.742-3.79 3.103-5.931l-1.551-.66c.109-.329.326-.494.653-.494h1.062l-1.062-.988c1.252 0 2.096-.165 2.532-.495.87-2.746 2.178-5.328 3.92-7.744 1.742-2.417 3.838-4.285 6.288-5.603l-.163-.824zm-74.482 4.613c-.218-.384-.544-.577-.98-.577-.435 0-.708.248-.816.742.217.55.054 1.153-.49 1.813-.49.659-.844 1.098-1.062 1.318l-.327-.33c.436-.44.6-.769.49-.988-.218.22-.653.85-1.306 1.895l1.143-.165c-1.198.769-1.797 1.538-1.797 2.307 0 .714.436 1.483 1.307 2.307a68.73 68.73 0 0 0 3.185 2.8c.327-.219 1.062-1.07 2.205-2.553 1.198-1.483 2.178-2.39 2.94-2.72zm8.739.989a3.265 3.265 0 0 0-1.634 1.977c-.272.824-.408 1.84-.408 3.049 1.47 5.547 2.886 10.079 4.247 13.594 1.415 3.46 4.138 5.685 8.167 6.673-.11-.988.109-1.812.653-2.471.544-.714 1.334-1.346 2.368-1.895-.599-1.483-1.17-2.225-1.715-2.225 0 .44-.272.824-.816 1.154-.545.274-.817.522-.817.741-.926.33-1.824.495-2.695.495-1.035 0-1.824-.22-2.369-.66 1.035 0 1.906-.11 2.614-.33.708-.274 2.069-.96 4.083-2.059-.762-1.922-1.524-4.202-2.286-6.838-.708-2.637-1.498-6.372-2.369-11.205-1.252-.66-2.477-.989-3.675-.989-1.252 0-2.368.33-3.348.989zm35.934.989l-.164.988c.11-.22.164-.44.164-.659zm.98 1.318a86.25 86.25 0 0 0-2.614 3.295c-.816 1.099-1.007 2.252-.571 3.46.816-.11 1.66-.603 2.531-1.482.872-.88 1.498-1.373 1.879-1.483.218 1.098-.6 2.224-2.45 3.378-1.851 1.098-2.505 2.334-1.96 3.707 1.36.22 2.314.33 2.858.33 1.47 0 2.532-.467 3.185-1.4.109-1.429-.326-3.296-1.306-5.603-.926-2.307-1.443-3.708-1.552-4.202zm-39.773 4.12c-.925.439-1.905 1.043-2.94 1.812-1.034.769-2.014 1.51-2.94 2.224-.326 1.209-.354 2.307-.081 3.296.272.934.816 2.307 1.633 4.12.762.11 1.906-.11 3.43-.66 1.579-.604 2.831-.714 3.757-.33a108.91 108.91 0 0 1-3.512-5.766c.98 1.263 1.797 2.114 2.45 2.554 0-.934-.381-2.005-1.143-3.214-.763-1.263-1.198-2.06-1.307-2.389l.98.33zm38.303 8.403l-1.389-.66-.49.66zm-10.209 6.426c2.341.22 3.784-.302 4.329-1.565 0-1.318-.545-1.977-1.634-1.977-.599 0-1.252.11-1.96.33a19.34 19.34 0 0 1-1.878.493zm-28.584-3.378c-1.579.44-2.613.852-3.103 1.236-.49.385-.572 1.044-.245 1.978l6.37 20.927c1.089 2.251 2.123 3.927 3.103 5.025 1.035 1.044 2.396 1.566 4.084 1.566.653 0 1.143-.055 1.47-.165 1.252 0 2.75-.522 4.492-1.566 1.796-1.098 3.076-1.647 3.838-1.647-.327.549-.572.988-.735 1.318-.163.33-.136.714.082 1.153 1.034-.988 1.551-2.06 1.551-3.213 0-1.098-.354-2.17-1.061-3.213a109.407 109.407 0 0 1-1.797-3.13c.218-2.033.49-4.065.817-6.098 0-.33.354-1.098 1.061-2.307.763-1.263 1.144-2.114 1.144-2.554 0-.714-.463-1.235-1.389-1.565-.435.769-1.28 1.236-2.531 1.4-1.198.11-2.07.275-2.614.495-4.79-1.703-8.248-4.696-10.372-8.98zm24.582 4.037c-.108.22-.816.522-2.123.907-1.252.384-1.497 1.153-.735 2.307 1.089.33 1.987.33 2.695 0 .762-.33 1.66-.824 2.695-1.483a87.398 87.398 0 0 0-1.225-1.483c-.327-.385-.762-.467-1.307-.247zm-7.186.99c-.218.219-.79.494-1.715.823-.872.275-1.09.851-.654 1.73h1.307c.599-.33 1.089-.631 1.47-.906s.517-.714.408-1.318zm5.308 23.315c.218.989.408 3.378.572 7.168.163 3.79.87 6.564 2.123 8.322 1.688.11 3.212-.22 4.574-.99 1.415-.768 2.613-1.95 3.593-3.542-.327-.55-.544-1.208-.653-1.977a19.496 19.496 0 0 1-.164-2.554v-4.367c-.217-.494-.326-.796-.326-.906l-4.329.906c-1.797-.275-2.804-.851-3.022-1.73.327-.22.735-.192 1.225.082.545.275.926.357 1.144.247 1.089 0 2.042-.027 2.858-.082.871-.055 1.58-.302 2.124-.741-2.886 0-6.017-.165-9.392-.495zm-1.307-.659a16.724 16.724 0 0 0-.49 4.037c0 1.593.191 3.873.572 6.839.381 2.966.572 4.833.572 5.602h2.042c-.817-1.758-1.416-4.641-1.797-8.65-.381-4.01-.68-6.62-.899-7.828zm13.067.33c.11.22-.245.714-1.061 1.483v3.707c0 2.582.408 4.34 1.225 5.273.326-1.263.49-2.444.49-3.543-.11-2.142-.164-3.844-.164-5.108v-1.648zM40.344 63.44c-1.797.934-3.321 1.648-4.573 2.142a9.753 9.753 0 0 1-3.757.741c1.415 0 2.423-.054 3.022-.164.653-.11 2.422-.605 5.308-1.483zm18.375.33v3.542c0 1.373.11 2.334.327 2.884zm-16.742.906c-.217 1.538-.326 2.773-.326 3.707 0 2.911.462 5.603 1.388 8.074.109-.549.163-1.455.163-2.719 0-1.318-.054-2.773-.163-4.366-.109-1.593-.218-3.159-.327-4.696zm-1.143.823c-1.47.55-3.185 1.099-5.145 1.648-1.906.495-3.648.797-5.227.907l1.552 7.085 9.963 2.637z"/></g></g></svg>