<svg width="63" height="58" viewBox="0 0 63 58" fill="none" xmlns="http://www.w3.org/2000/svg">
<g filter="url(#filter0_d)">
<path d="M47.4456 9.28525L55 11.9475C54.745 14.518 54.5537 16.706 54.4262 18.5115C54.2987 20.3169 53.6772 21.8164 52.5615 23.0098L49.645 27.5541H48.9278C47.3021 26.2995 45.9315 25.259 44.8159 24.4328C43.7002 23.6066 42.489 23.0098 41.1821 22.6426L40.0346 26.9574C39.6521 27.3552 37.9308 28.9617 34.8708 31.7771C31.8427 34.5924 30.1373 37.377 29.7548 40.1311C29.2767 40.7432 28.8305 41.9366 28.4161 43.7115C28.0017 45.4557 27.6033 46.6186 27.2208 47.2C26.6151 47.5672 25.9617 47.7508 25.2604 47.7508C24.336 47.7508 23.4435 47.4601 22.5829 46.8787C21.6267 45.8995 21.1485 44.4918 21.1485 42.6557C21.1485 42.0437 21.1963 41.3858 21.292 40.682C21.3876 39.9475 21.5629 39.1978 21.8179 38.4328C20.5748 38.5552 19.3316 38.647 18.0885 38.7082C17.8973 38.7694 17.706 38.6623 17.5148 38.3869C17.3235 38.1115 17.1322 38.0044 16.941 38.0656C16.4629 38.6776 15.7616 40.6361 14.8372 43.941C13.9447 47.2153 12.4785 49.235 10.4385 50C9.41845 50 8.60563 49.694 8 49.082C9.56189 41.4929 11.1716 33.9038 12.8291 26.3148C12.9566 25.6721 12.861 24.8612 12.5422 23.882C12.2553 22.8721 12.1119 22.2142 12.1119 21.9082C12.1119 21.5716 12.2075 21.1585 12.3988 20.6689C14.5663 18.8022 17.5785 16.8896 21.4354 14.9311C25.2923 12.9421 28.1929 11.4426 30.1373 10.4328C34.1217 9.60656 38.138 8.79563 42.1862 8C44.1306 8 45.8837 8.42842 47.4456 9.28525ZM38.2655 9.19344C37.9468 9.25464 37.118 9.42295 35.7792 9.69836C34.4405 9.94317 32.9264 10.2186 31.237 10.5246C29.5795 10.8306 28.2726 11.5497 27.3164 12.682C26.7107 12.988 26.1848 13.294 25.7386 13.6C25.2923 13.8754 24.8301 14.0131 24.352 14.0131C23.2364 14.5027 21.8338 15.2678 20.1445 16.3082C18.4551 17.3486 17.1482 18.1137 16.2238 18.6033C16.6063 18.6033 17.1641 18.435 17.8973 18.0984C18.6304 17.7311 19.1244 17.5475 19.3794 17.5475C18.9651 18.0066 18.0726 18.5115 16.7019 19.0623C15.3313 19.5825 14.5185 20.271 14.2635 21.1279C14.2635 22.7803 13.9607 24.7541 13.355 27.0492C12.7813 29.3137 12.1438 31.823 11.4425 34.577C11.6338 34.6383 11.8728 34.6842 12.1597 34.7148C12.4466 34.7454 12.59 34.8525 12.59 35.0361C12.335 35.3115 12.08 35.4492 11.825 35.4492L12.3988 36C12.335 36.2448 12.1119 36.3366 11.7294 36.2754C11.3469 36.2142 10.9963 36.9486 10.6775 38.4787C10.3906 40.0087 10.0241 42.1508 9.57782 44.9049C9.57782 45.6699 9.67345 46.435 9.8647 47.2C9.4822 47.812 9.13157 48.3934 8.81282 48.9443C9.06782 49.2197 9.45032 49.3574 9.96033 49.3574C10.1516 49.3574 10.3428 49.3574 10.5341 49.3574C10.821 49.235 11.0919 49.1126 11.3469 48.9902C11.6019 48.8372 11.8569 48.6077 12.1119 48.3016C12.3669 47.9956 12.6697 47.5213 13.0203 46.8787C13.3391 45.9607 13.6578 45.0273 13.9766 44.0787C13.9766 43.6503 13.7535 43.2984 13.3072 43.0229C13.9447 42.5945 14.4547 41.9213 14.8372 41.0033C15.2516 40.0546 15.6182 39.1366 15.9369 38.2492C15.9369 38.0656 15.8254 37.9585 15.6022 37.9279C15.3791 37.8973 15.1719 37.8514 14.9807 37.7902L14.885 37.0098L16.4151 36.7344C17.0207 34.8678 17.6104 32.9552 18.1841 30.9967C18.1841 30.2623 18.0248 29.6044 17.706 29.023C17.8973 28.8393 18.1523 28.9158 18.471 29.2525C18.8216 29.5585 19.1244 29.6044 19.3794 29.3902L18.8535 30.2623C20.2241 30.5683 21.3398 30.1246 22.2004 28.9311C21.4354 28.5027 20.9095 28.1049 20.6226 27.7377C20.0488 27.7377 19.762 27.5082 19.762 27.0492C19.8895 26.6208 19.9851 26.2689 20.0488 25.9934C20.1126 25.718 20.1126 25.4732 20.0488 25.259C20.2401 25.259 20.4313 25.4273 20.6226 25.7639C20.4951 26.682 21.0688 27.4317 22.3438 28.0131C23.6189 28.5639 24.352 29.0995 24.5432 29.6197C24.4795 29.0995 24.1767 28.518 23.6348 27.8754C23.1248 27.2022 22.8379 26.7738 22.7742 26.5902L24.9257 28.3803C24.9257 28.0743 24.7982 27.6459 24.5432 27.0951C24.2882 26.5137 24.1607 26.0699 24.1607 25.7639C24.607 26.376 25.0054 26.8503 25.3561 27.1869C25.7386 27.4929 25.9298 27.8601 25.9298 28.2885C25.9298 28.5945 25.8661 28.9617 25.7386 29.3902C25.6111 29.788 25.4676 30.3082 25.3082 30.9508C25.1489 31.5628 24.5273 33.2 23.4435 35.8623C22.3598 38.5246 21.8179 40.5749 21.8179 42.0131C21.8179 43.2066 22.041 44.3388 22.4873 45.4098C22.806 44.4612 23.0929 43.6809 23.3479 43.0689C23.6348 42.4262 24.1607 42.1049 24.9257 42.1049C26.2326 42.1049 27.0295 42.518 27.3164 43.3443C27.8264 41.8142 28.3364 40.2995 28.8464 38.8C28.5276 38.8612 28.1929 38.8918 27.8423 38.8918C27.4917 38.8918 27.2526 38.8918 27.1251 38.8918C26.2007 38.8918 25.4676 38.7082 24.9257 38.341C25.0851 38.2798 25.2445 38.2492 25.4039 38.2492C25.5632 38.2492 25.7386 38.2492 25.9298 38.2492L25.1648 37.6066C25.4198 37.3311 25.7704 37.1934 26.2167 37.1934C26.5354 37.1934 27.0295 37.3464 27.6989 37.6525C28.4001 37.9279 28.958 38.0044 29.3723 37.882C29.5636 36.8721 30.233 35.6175 31.3805 34.118C32.5598 32.6186 33.2292 31.7464 33.3886 31.5016L32.4802 30.7213L30.998 29.3902C31.4761 29.5432 32.0977 29.8186 32.8627 30.2164C33.6595 30.6142 34.1855 30.8131 34.4405 30.8131C34.9505 30.8131 35.4446 30.4765 35.9227 29.8033C37.6121 28.9158 38.903 27.0033 39.7955 24.0656C40.7199 21.0973 41.7399 19.1847 42.8555 18.3279C44.7681 18.1443 46.4574 18.5115 47.9237 19.4295C49.39 20.3169 50.7447 21.1126 51.9878 21.8164C52.689 20.9902 53.1512 20.0568 53.3744 19.0164C53.6294 17.976 53.7569 16.7366 53.7569 15.2984V12.9574C53.7569 12.4678 53.2309 12.1311 52.179 11.9475C51.1272 11.7333 49.4218 11.1213 47.0631 10.1115C44.7362 9.07104 42.8874 8.55082 41.5168 8.55082C40.3374 8.55082 39.2536 8.76503 38.2655 9.19344ZM44.4334 19.4295V19.8426L50.41 24.341C50.41 24.2798 50.5375 24.1268 50.7925 23.882C51.0475 23.6066 51.1112 23.377 50.9837 23.1934C50.2825 22.2754 49.4218 21.5716 48.4018 21.082C47.3818 20.5617 46.059 20.0109 44.4334 19.4295ZM43.9552 20.3934C44.5927 21.0055 45.3259 21.6328 46.1546 22.2754C47.0153 22.8874 47.7803 23.3617 48.4496 23.6984C48.0671 23.1781 47.5253 22.6426 46.824 22.0918C46.1546 21.5104 45.1984 20.9443 43.9552 20.3934ZM13.3072 20.6689C13.0522 20.9137 12.9247 21.1891 12.9247 21.4951C12.9247 21.8317 13.0203 22.0918 13.2116 22.2754L13.3072 20.6689ZM44.4334 22.459L42.9512 21.7246L44.9115 23.0098L44.4334 22.459ZM46.8718 23.6066L49.4059 25.8557C49.5015 25.7945 49.5493 25.7333 49.5493 25.6721C49.5493 25.6109 49.5812 25.4426 49.645 25.1672C48.9756 24.9224 48.4018 24.647 47.9237 24.341C47.4774 24.035 47.1268 23.7902 46.8718 23.6066ZM22.7742 29.6197V29.9869C23.2523 29.9869 23.4914 29.9257 23.4914 29.8033C23.1407 29.6809 22.9017 29.6197 22.7742 29.6197ZM19.2838 31.5016L17.4191 37.0098L17.8973 37.7902C18.4073 37.9126 18.8057 37.9738 19.0926 37.9738C19.6026 37.9738 20.1604 37.8514 20.766 37.6066C21.4035 37.3311 21.8817 37.1322 22.2004 37.0098C22.806 34.9596 23.4276 32.894 24.0651 30.8131C23.4914 30.8131 23.061 30.8131 22.7742 30.8131C22.6467 31.8842 22.4554 32.7104 22.2004 33.2918C21.9454 33.8426 21.4195 34.3322 20.6226 34.7607C20.9732 34.2098 21.3079 33.6437 21.6267 33.0623C21.9454 32.4503 22.1048 31.823 22.1048 31.1803C22.1048 30.8743 22.0729 30.6295 22.0092 30.4459C21.6904 30.5683 21.2282 30.7519 20.6226 30.9967C20.0488 31.2415 19.6026 31.4098 19.2838 31.5016ZM26.2167 42.9311C25.7704 42.7475 25.4357 42.6404 25.2126 42.6098C25.0214 42.5792 24.8301 42.6863 24.6389 42.9311C25.117 43.329 25.7067 43.3902 26.4079 43.1148L26.2167 42.9311ZM23.587 43.8951C23.3957 44.6295 23.3001 45.0732 23.3001 45.2262C23.3001 45.5322 23.4595 45.7771 23.7782 45.9607C24.5432 46.0831 25.1329 46.1443 25.5473 46.1443C25.9298 46.1443 26.2486 46.0219 26.5036 45.7771C26.8223 44.8896 26.8223 44.2623 26.5036 43.8951C26.3123 44.0175 25.9936 44.0022 25.5473 43.8492C25.1329 43.6962 24.7026 43.5279 24.2564 43.3443C24.0014 43.3443 23.7782 43.5279 23.587 43.8951ZM23.1088 45.9607C23.9376 46.9093 24.8142 47.2153 25.7386 46.8787C25.0054 46.7563 24.4635 46.6492 24.1129 46.5574C23.7623 46.4656 23.4276 46.2667 23.1088 45.9607ZM9.29095 47.4754V46.5115L8.90844 47.659L9.29095 47.4754ZM25.9298 36.5508C27.1092 36.5508 28.0814 36.9333 28.8464 37.6984L25.9298 36.5508ZM42.3774 9.10164C42.8237 8.97923 43.3177 9.04044 43.8596 9.28525C44.4971 9.74426 44.9434 10.0656 45.1984 10.2492L42.3774 9.10164ZM30.7111 29.9869L32.2889 30.5377C32.0339 30.5989 31.763 30.5683 31.4761 30.4459C31.2211 30.3235 30.9661 30.1705 30.7111 29.9869ZM37.6918 23.377C38.0743 21.8164 38.6161 20.3934 39.3174 19.1082C40.0505 17.823 41.0387 16.8131 42.2818 16.0787C41.2299 16.9355 40.3533 18.2514 39.6521 20.0262C39.5883 19.965 39.5565 19.8732 39.5565 19.7508C39.1421 20.118 38.7915 20.6689 38.5046 21.4033C38.2177 22.1071 37.9468 22.765 37.6918 23.377ZM19.6663 34.4852C19.7938 34.5464 19.9054 34.7301 20.001 35.0361C20.0966 35.3115 20.272 35.3727 20.527 35.2197C20.017 35.6175 19.6982 35.5563 19.5707 35.0361L19.6663 34.4852Z" fill="#CD4138"/>
</g>
<defs>
<filter id="filter0_d" x="0" y="0" width="63" height="58" filterUnits="userSpaceOnUse" color-interpolation-filters="sRGB">
<feFlood flood-opacity="0" result="BackgroundImageFix"/>
<feColorMatrix in="SourceAlpha" type="matrix" values="0 0 0 0 0 0 0 0 0 0 0 0 0 0 0 0 0 0 127 0"/>
<feOffset/>
<feGaussianBlur stdDeviation="4"/>
<feColorMatrix type="matrix" values="0 0 0 0 0.803922 0 0 0 0 0.254902 0 0 0 0 0.219608 0 0 0 0.9 0"/>
<feBlend mode="normal" in2="BackgroundImageFix" result="effect1_dropShadow"/>
<feBlend mode="normal" in="SourceGraphic" in2="effect1_dropShadow" result="shape"/>
</filter>
</defs>
</svg>
