<svg xmlns="http://www.w3.org/2000/svg" width="55" height="112" viewBox="0 0 55 112"><g><g><path fill="#cd4138" d="M29.725.306C30.79-.193 31.88-.082 33 .64c1.12.665 1.96 2.162 2.52 4.49.615 2.33 1.007 5.213 1.175 8.65.168 3.383.252 8.012.252 13.89 0 .332-.196 1.524-.588 3.576-.392 2.05-.532 3.52-.42 4.407 1.847-1.996 3.975-2.994 6.382-2.994.783 0 1.623.167 2.519.5a28.66 28.66 0 0 1 3.19 5.904c.896 2.052 1.344 4.103 1.344 6.155 0 1.497-.252 2.855-.756 4.075.84 1.83 1.764 3.742 2.771 5.738 1.064 1.996 2.268 3.66 3.611 4.99 0 1.83-.616 4.88-1.847 9.149-1.176 4.27-1.764 7.374-1.764 9.315a1253.176 1253.176 0 0 1-9.992 13.889c-1.344.166-2.38.803-3.107 1.912-1.008 2.828-1.763 4.685-2.267 5.573-.504.831-.812 2.356-.924 4.574-.112 2.218-.643 3.715-1.595 4.491A2297.285 2297.285 0 0 1 19.564 112c-1.119 0-2.49-.222-4.114-.665-1.623-.444-3.834-1.525-6.633-3.244-2.8-1.719-4.702-2.8-5.71-3.243.784-1.497 1.4-3.909 1.847-7.236.448-3.327 1.036-5.739 1.764-7.236-1.512-3.77-3.023-7.568-4.535-11.394C.728 74.547 0 70.5 0 66.84c0-2.384.336-4.768 1.008-7.152a2985.541 2985.541 0 0 1 5.374-25.366c-.168-.998-.252-1.802-.252-2.412v-1.497c.728-2.717 1.287-4.74 1.68-6.071.391-1.387 1.063-2.44 2.014-3.16.336-.223.952-.278 1.848-.167.895.11 1.54.166 1.931.166.784 0 1.288-.471 1.512-1.414.223-.942.335-2.107.335-3.493-.112-2.051-.168-3.576-.168-4.574 0-1.719.224-3.077.672-4.075.448-1.054 1.12-1.747 2.016-2.08.951-.332 1.623-.498 2.015-.498h.84c1.903 0 3.386.72 4.45 2.162a75.045 75.045 0 0 1 1.26-4.49c.391-1.276 1.455-2.08 3.19-2.413zM27.458 2.47c-.336 1.053-.56 2.384-.672 3.992-.112 1.552-.168 2.44-.168 2.66 0 .777.056 2.136.168 4.076.112 1.94.168 3.465.168 4.574.728-.11 2.015-.332 3.863-.665 1.903-.333 3.387-.444 4.45-.333V5.713a33.794 33.794 0 0 1-.672-2.912c-.168-1.22-1.343-1.83-3.526-1.83-1.344 0-2.547.5-3.611 1.498zm-8.397 3.576c-1.12.942-1.903 2.024-2.351 3.243-.392 1.165-.588 2.634-.588 4.408 0 .72.056 1.913.168 3.576.112 1.608.168 2.856.168 3.743l5.038-.832c1.344.111 2.127.111 2.351 0 0-1.719.056-3.327.168-4.824.168-1.552.308-3.132.42-4.74 0-1.33-.056-2.329-.168-2.994-.616-1.054-2.351-1.58-5.206-1.58zM35.267 17.77c-1.175-.221-2.043-.332-2.603-.332-2.407 0-4.31.526-5.71 1.58-1.231 2.717-1.847 5.212-1.847 7.485 0 .554.112 1.303.336 2.245.895 0 2.407-.11 4.534-.332 2.127-.277 3.247-.416 3.359-.416.784 0 1.427.055 1.931.166.224-.776.392-2.024.504-3.742.112-1.774.168-3.077.168-3.91zm-11.924 3.41c-1.343-.222-2.323-.277-2.938-.166-.56.11-1.932.527-4.115 1.247-.448.777-.588 1.72-.42 2.828.168 1.053.14 2.246-.084 3.576-.224 1.275-.336 2.08-.336 2.412 0 .665.168 1.358.504 2.08l8.313-1.415-.42-9.48zM11 21.93c-1.288.222-2.043.942-2.267 2.162l-1.848 9.065c.336.444.84.666 1.512.666h4.618c-.783 0-1.4.055-1.847.166-.448.333-1.176.638-2.183.915-.952.277-1.596.527-1.932.748 0 5.379-.923 10.784-2.77 16.218a183.046 183.046 0 0 0 5.373-2.162c1.904-.832 3.443-1.858 4.619-3.078l.504-22.205c-.224-.887-.672-1.608-1.344-2.163-.616-.61-1.427-.72-2.435-.332zm14.443 20.376l.504.748c.447-.11 1.175-.194 2.183-.25 1.063-.11 2.043-.221 2.939-.332 1.4 0 2.379-.055 2.939-.166 0-1.664.196-3.826.587-6.487.448-2.717.784-4.74 1.008-6.072-1.176-.221-2.043-.332-2.603-.332-2.631 0-5.094.554-7.39 1.663zm-1.596-9.149c-1.231-.11-2.799.194-4.702.915-1.903.72-3.079 1.137-3.527 1.248.112 3.77.28 7.485.504 11.144l7.054-3.077 1.427-8.234zm20.32.832c-1.119-.222-2.042-.333-2.77-.333-1.903 0-3.33.666-4.282 1.996-.224.943-.336 1.636-.336 2.08 0 .776.14 1.885.42 3.326.28 1.442.42 2.329.42 2.662.447.776.671 2.273.671 4.49 0 2.218.476 3.77 1.428 4.658.335-.554.56-.887.671-.998-.56-.333-.671-.97-.336-1.913.336-.998.448-1.83.336-2.495 0-1.608 1.26-2.412 3.779-2.412 1.064-.11 1.735.416 2.015 1.58.28 1.11.644 1.72 1.092 1.83.224-.665.448-1.47.672-2.412.223-.998.335-2.051.335-3.16 0-1.608-.335-3.05-1.007-4.325zm-18.22 9.73l-.504.333c-2.52.333-5.626 1.553-9.32 3.66-3.64 2.106-6.327 3.437-8.062 3.992-2.743 0-4.45 1.303-5.122 3.908-.392 3.549-.7 5.989-.924 7.32.224 0 .532-.14.924-.417.448-.277.784-.25 1.008.084-1.736 1.386-2.603 3.16-2.603 5.322 0 .998.167 2.163.503 3.493.336 1.275.616 2.301.84 3.077.28.721 1.204 3.521 2.771 8.4 1.623 4.88 3.247 7.735 4.87 8.567 1.68.776 2.827 1.22 3.443 1.33.672.111 1.4.167 2.183.167 1.176 0 3.08-.305 5.71-.915-2.183 1.608-4.702 2.412-7.557 2.412-.952 0-1.652-.056-2.1-.167l1.428.5c.672.11 1.567.166 2.687.166 1.623 0 3.191-.388 4.702-1.165.896.555 1.652.36 2.268-.582.615-.998 1.007-1.497 1.175-1.497l.336.333a362.417 362.417 0 0 0-1.931 13.307c0 .776.112 1.968.336 3.576l-.504.499a9.439 9.439 0 0 1-1.176-4.574c0-.666.112-1.913.336-3.743.224-1.83.336-2.855.336-3.077-.784 1.719-1.428 3.881-1.931 6.487-.448 2.606-.784 4.352-1.008 5.239 2.183.222 4.059.139 5.626-.249a41.853 41.853 0 0 0 4.702-1.414c-.224-1.497.056-3.715.84-6.653.84-2.939 1.315-4.935 1.427-5.988h-1.595c-.672 0-1.4-.084-2.183-.25-.728-.166-1.148-.637-1.26-1.414a70.33 70.33 0 0 0 5.038.5c-.223-.555-.867-.888-1.93-.999a10.907 10.907 0 0 1-2.94-.748c-.895-.444-1.651-1.58-2.267-3.41-.56-1.885-1.008-3.299-1.343-4.242.447.388.895 1.192 1.343 2.412.504 1.165.924 1.858 1.26 2.08a206.188 206.188 0 0 1-.924-4.325c-.28-1.442-.42-2.911-.42-4.408 0-.998.056-1.802.168-2.412l-1.427 6.653-.672-.665c-.112-.444-.168-1.109-.168-1.996 0-2.051.588-4.297 1.763-6.737a389.45 389.45 0 0 1 2.855-5.572c2.407-1.33 4.479-2.44 6.214-3.326 1.735-.943 3.443-1.525 5.122-1.747.504-.444.448-1.636-.168-3.576-.56-1.94-.728-3.244-.504-3.909l-2.519.998-6.55 1.663c-3.47 2.163-6.045 3.965-7.725 5.406-1.623 1.386-2.77 3.216-3.442 5.49h-1.428c.336-.444.392-1.165.168-2.163-.224-1.054-.224-1.857 0-2.412l1.26 1.913c2.63-3.216 5.654-5.71 9.068-7.485 3.471-1.83 7.306-3.271 11.504-4.325l.756-1.83c-.84-.443-1.763-.665-2.771-.665-2.183.333-3.807.5-4.87.5a31.91 31.91 0 0 1 3.19-.916c1.232-.332 2.24-.499 3.023-.499 0-.554-.056-1.608-.168-3.16-.112-1.608-.167-2.883-.167-3.826-1.736-.443-2.715-1.109-2.94-1.996zm15.618 3.743c-.336.333-.504.887-.504 1.663 0 .721.112 1.303.336 1.747l1.092-.665c-.112.776-.588 1.857-1.428 3.243-.784 1.33-1.315 2.384-1.595 3.16-.28.721-.42 1.636-.42 2.745 0 1.719.364 3.244 1.091 4.574.728 1.276 1.904 2.828 3.527 4.658-.784-.222-1.427-.278-1.931-.167.112.666.252 1.275.42 1.83h-1.428c-.336.554-.504 1.081-.504 1.58 0 .555.196 1.33.588 2.329.392.942.588 1.58.588 1.913-.896-.222-1.512-.915-1.847-2.08-.336-1.22-.56-2.106-.672-2.66 0-.722.168-1.72.504-2.995.336-1.33.447-2.273.336-2.828-5.598 1.11-10.077 3.493-13.436 7.153-.671 2.384-1.007 5.1-1.007 8.15 0 2.828.448 5.49 1.343 7.984 1.064 1.386 2.463 2.273 4.199 2.662 1.791.388 3.946.582 6.465.582 2.296-.333 4.45-2.107 6.466-5.323 2.015-3.216 3.303-5.073 3.863-5.572-.336-.665 0-1.248 1.007-1.747 1.064-.499 1.652-.998 1.764-1.497l2.435-11.56c-.28 0-.784.194-1.512.582-.727.388-1.203.582-1.427.582-.336 0-.644-.332-.924-.998 2.911-.776 4.646-2.522 5.206-5.24-.336-.83-.895-1.662-1.68-2.494a88.234 88.234 0 0 0-2.434-2.661c-.616.221-1.428.859-2.435 1.912-1.008.998-1.932 1.497-2.771 1.497-.672-.221-1.4-.748-2.184-1.58-.727-.887-.783-1.885-.167-2.994a13.58 13.58 0 0 1 1.93-2.412c.729-.776 1.456-1.053 2.184-.831-1.511.998-2.491 1.718-2.939 2.162-.448.388-.728 1.081-.84 2.08.336 1.385 1.12 2.19 2.352 2.411.503-.222.98-.804 1.427-1.746 1.68 0 2.52-.666 2.52-1.996 0-.222-.113-.888-.337-1.996-.224-1.165-.224-1.913 0-2.246-.56-.499-1.231-.748-2.015-.748-.672 0-1.4.194-2.183.582-.728.332-1.26.554-1.596.665-.336-.72.112-1.303 1.344-1.746 1.287-.444 1.567-1.11.84-1.997-.336-.221-.98-.277-1.932-.166-.895.111-1.455.277-1.68.5zM8.397 92.372c-.896 1.165-1.54 3.16-1.931 5.989-.336 2.827-.672 4.601-1.008 5.322l11.588 5.739 2.687-13.64c-.56 0-1.54.084-2.94.25-1.343.11-2.35.166-3.022.166-.952 0-1.707-.055-2.267-.166-.56-.166-.952-.804-1.176-1.913-.224-1.164-.867-1.746-1.931-1.746zm24.435 14.139c0-1.22.448-3.493 1.344-6.82.951-3.382 1.427-5.128 1.427-5.24a228.15 228.15 0 0 0-2.435 6.571c-.784 2.218-1.176 4.297-1.176 6.237zm-13.435-2.828c.84-2.772 1.651-5.516 2.435-8.233-.56 1.053-1.064 2.328-1.511 3.825a38.53 38.53 0 0 0-.924 4.408zm10.832 3.909c.952-2.828 1.68-5.212 2.183-7.152.504-1.94.868-3.604 1.092-4.99-1.736 3.66-2.771 6.154-3.107 7.485-.336 1.275-.392 2.827-.168 4.657zm-15.45-47.904c2.407-.222 5.458-1.054 9.152-2.495 3.75-1.497 6.13-2.357 7.138-2.578-.896.221-3.387 1.192-7.474 2.91-4.03 1.664-7.305 2.495-9.824 2.495-1.96 0-3.695.167-5.206.5-1.456.277-2.883.803-4.283 1.58 1.4-.888 2.827-1.553 4.283-1.996 1.511-.5 2.883-.749 4.114-.749.504 0 1.204.11 2.1.333zM39.382 41.64c.783-.998 2.043-1.497 3.778-1.497 1.232 0 2.156.333 2.771.998zm-12.966 4.351a3.477 3.477 0 0 0-.134-.608c.084.164.128.367.134.608zm-.637 3.467c-.112-.332 0-.97.336-1.913.21-.627.311-1.145.301-1.554.124.952-.088 2.108-.637 3.467zM8.06 43.72c.336-.721.868-1.22 1.595-1.497.784-.278 1.848-.472 3.191-.583-.783.111-1.651.472-2.603 1.082-.895.554-1.623.887-2.183.998zm38.878 7.817c.784-.443 1.287-.665 1.511-.665"/></g></g></svg>