<svg xmlns="http://www.w3.org/2000/svg" width="48" height="112" viewBox="0 0 48 112"><g><g><path fill="#cd4138" d="M27.517.524C28.454.174 29.303 0 30.066 0c2.051 0 3.546.903 4.484 2.708.468 1.515.82 3.495 1.054 5.941.235 2.446.352 4.572.352 6.378v4.106c2.403 4.077 4.777 10.28 7.12 18.608C45.422 46.07 47.063 51.428 48 53.816c0 5.533-.908 11.008-2.725 16.424a3031.121 3031.121 0 0 1-4.396 13.454c-1.113 1.806-1.875 3.96-2.286 6.465-.41 2.505-.615 5.3-.615 8.387v5.067c-1.465 2.039-3.34 3.757-5.626 5.155-2.286 1.339-5.744 2.417-10.374 3.232l-12.132-3.407c0-1.398-.293-3.669-.879-6.815-.586-3.203-.88-5.416-.88-6.64-2.52-2.504-4.219-5.095-5.098-7.775-.82-2.679-1.817-7.396-2.989-14.152 0-4.543.322-8.853.967-12.93s1.7-8.358 3.165-12.843c1.934-.99 3.839-2.009 5.714-3.057-.234-1.456-.351-2.592-.351-3.407 0-1.224.322-2.301.966-3.233a5.934 5.934 0 0 1 2.638-2.01c1.113-.465 2.49-.698 4.132-.698h1.846a15.23 15.23 0 0 1 1.934 2.62c.645.99 1.26 2.097 1.846 3.32.469-1.223.762-2.999.88-5.329.116-2.388.175-3.785.175-4.193l.88-8.562a356.722 356.722 0 0 1-3.078-10.221c0-1.98.85-3.524 2.55-4.63.234-2.039.498-3.64.79-4.806.294-1.223 1.114-2.125 2.462-2.708zm.527.7c-1.7 1.572-2.344 3.61-1.934 6.115 1.64 0 3.194.902 4.66 2.708a65.66 65.66 0 0 0 3.428 4.805v-4.456c0-2.737-.176-4.776-.528-6.115-.351-1.398-1.113-2.272-2.285-2.621-1.114-.408-2.228-.553-3.341-.437zm-2.725 7.338c-1.641 1.223-2.462 2.591-2.462 4.106 0 .99.528 2.65 1.583 4.98 1.113 2.33 1.67 3.785 1.67 4.368.469 1.164 1.172 1.747 2.11 1.747l6.857-2.097-2.901-6.814a141.893 141.893 0 0 0-2.99-4.106c-.995-1.456-2.285-2.184-3.867-2.184zM35.78 22.889c-1.406-.35-2.754-.204-4.044.437a94.984 94.984 0 0 0-3.516 1.922c-.352.699-.528 1.281-.528 1.747 0 1.107.293 2.155.88 3.145.644.99 1.26 1.98 1.846 2.97l7.033-2.358.527.35-3.429 1.485 4.836-.961c-.352-1.398-.586-2.447-.704-3.146zm-9.67 4.98c.234-.233.293-.583.176-1.048-.118-.466-.293-.758-.528-.874zm-.616 1.66c-.234.582-.41 1.572-.527 2.97-.117 1.34-.176 2.3-.176 2.883V40.1l5.275-.175c-.234-1.805-.527-3.174-.88-4.106-.292-.99-1.083-3.087-2.373-6.29zm14.242 3.582c-.351-.117-.879-.175-1.582-.175-1.348 0-2.579.175-3.693.524-1.054.35-2.344.932-3.868 1.747.47 2.505.85 4.223 1.143 5.155.293.874.938 1.718 1.934 2.534.47-.117 1.172-.175 2.11-.175.88 0 2.022.204 3.429.611 1.465.35 2.725.641 3.78.874l-.703-3.232zm-26.285 3.582c-1.759 1.281-2.52 2.824-2.286 4.63 1.64-2.038 3.78-3.058 6.417-3.058 1.114 0 1.905.233 2.374.7-.469-1.865-1.729-2.796-3.78-2.796-.82 0-1.73.174-2.725.524zm3.076 3.407a5.47 5.47 0 0 0-2.197 1.223c-.586.582-1.173 1.427-1.759 2.534-.468.815-.351 1.339.352 1.572.703.233 1.846.524 3.429.874-.235-.7-.03-1.398.615-2.097a70.147 70.147 0 0 1 2.11-2.184 26.49 26.49 0 0 1-2.55-1.922zm10.638.699c-.703.233-1.29.407-1.758.524-.41.116-.674.35-.792.699.587.35 1.32.408 2.198.175a32.33 32.33 0 0 0 2.901-.874c-1.582-.35-2.432-.524-2.55-.524zm-5.627 2.096c-.703 1.34-1.289 2.301-1.758 2.883-.469.583-1.143 1.194-2.022 1.835-.937.583-2.11.466-3.516-.35-1.348-.873-2.257-1.193-2.725-.96v1.135c2.52 3.32 4.893 5.562 7.12 6.727 2.227 1.107 4.279 1.486 6.154 1.136 0 .466-.351.816-1.055 1.049-.351.931-.117 1.776.704 2.533.879.699 1.67 1.34 2.373 1.922-.234.233-.44.379-.615.437a1.452 1.452 0 0 1-.44.087c.117 1.107.616 2.213 1.495 3.32.879 1.048 1.553 1.864 2.022 2.446l-.352.35c-1.29-.466-2.403-1.34-3.34-2.621-.88-1.34-1.495-2.36-1.847-3.058-3.868 5.009-5.802 10.775-5.802 17.298 0 3.844.674 7.135 2.022 9.872.82.117 2.256.408 4.308.874 2.051.466 3.545.699 4.483.699 1.114 0 2.198-.175 3.253-.525 3.75-2.155 5.978-4.921 6.681-8.3.704-3.435 1.055-8.182 1.055-14.24-.117.234-.322.408-.615.525-.293.116-.616.233-.967.35a14.46 14.46 0 0 0 1.494-2.622c.41-.99.616-1.892.616-2.708a3.85 3.85 0 0 0-.176-1.223L30.593 49.71l-2.549 3.058c-1.407.582-2.315.64-2.725.174l4.22-5.504c-.645-.757-1.964-1.601-3.957-2.533-1.934-.932-3.282-1.602-4.044-2.01zm5.627.437c0 .466.44.816 1.319 1.049.937.233 1.289-.117 1.054-1.049zm-9.407 2.272c1.348-.7 1.846-1.398 1.495-2.097-.352.117-.762.437-1.231.961-.41.524-.498.903-.264 1.136zm19.693-1.573l-2.374-.524-.352.35zm-6.682-.175c-.234.233-.41.583-.527 1.049-.117.466 0 .815.351 1.048.47 0 1.231-.524 2.286-1.572-.469-.466-1.172-.641-2.11-.525zm12.923 2.796c-.351-.116-1.494-.437-3.428-.96-1.876-.525-3.312-.787-4.308-.787-1.407 0-2.55.466-3.429 1.398-.234.99.03 2.038.792 3.145.82 1.048 1.465 1.98 1.934 2.795.469.816 1.377 1.224 2.725 1.224.82 0 2.051-.292 3.692-.874 1.7-.583 2.99-.874 3.869-.874l-.528-3.057zm-34.9-.35c-1.349.641-2.52 1.282-3.517 1.923-.997.64-1.495 1.747-1.495 3.32a3.648 3.648 0 0 0-.527 1.921c0 .874.234 1.66.703 2.36.469.698 1.114 1.048 1.934 1.048-1.055-1.165-1.67-1.952-1.846-2.36-.176-.465-.147-.99.088-1.572l.703.175v-1.398c0-.699.235-1.136.703-1.31.704 3.727 1.73 6.843 3.077 9.348a301.498 301.498 0 0 0 3.165 5.766c.762 1.281 1.7 2.038 2.813 2.271-.527-.35-.79-1.048-.79-2.097v-2.009c.234-1.573 1.142-2.097 2.724-1.573-.234-1.805-.38-3.261-.44-4.368-.058-1.165-.321-2.358-.79-3.582-.88-.582-1.758-1.397-2.638-2.446-.879-1.106-2.168-2.912-3.868-5.416zm19.604 4.893l1.143-2.01-1.67 2.185zm17.142 1.922c-2.52 0-5.157.612-7.912 1.835l2.11 2.795c1.231 0 2.491-.378 3.78-1.136 1.349-.757 2.316-1.252 2.902-1.485zm-27.34 8.037c.234-2.504.703-4.106 1.406-4.805-.703-.349-1.289-.465-1.758-.349-.41.117-.615.408-.615.874.234 1.456.557 2.883.967 4.28zm26.989-3.756c.234.64-.264 1.194-1.495 1.66-1.172.466-1.817.99-1.934 1.572.47 1.107.703 2.592.703 4.456-.117 3.145-.234 6.203-.351 9.173a773.864 773.864 0 0 0 2.637-10.134c.762-2.796 1.319-5.213 1.67-7.251-.586-.117-1.025-.088-1.318.087-.293.175-.498.32-.616.437zM6.242 58.883c-.235-.117-.704-.466-1.407-1.048-.703-.641-1.319-.67-1.846-.088-.117.757-.44 2.534-.967 5.33-.527 2.795-.791 4.98-.791 6.552v1.922a1213.89 1213.89 0 0 0 3.077 13.454c.937 3.669 2.725 6.698 5.362 9.086h2.198c1.817 0 3.4-.204 4.747-.612 1.407-.408 2.58-1.223 3.517-2.446-2.403-4.485-3.604-9.173-3.604-14.066 0-2.504.293-4.6.879-6.29a34.922 34.922 0 0 0-1.32 2.97c-.41.99-.556 1.893-.439 2.709.118.99.176 1.718.176 2.184 0 .582-.176.99-.527 1.223-.88-.932-1.319-2.068-1.319-3.407 0-1.165.205-2.33.615-3.495.47-1.223.938-2.417 1.407-3.582l-1.407.35c-.879-.874-1.67-1.31-2.373-1.31-.82 0-1.7.669-2.638 2.009-.879 1.28-1.494 2.038-1.846 2.271l-.351-.524 3.252-4.805c-.879-1.165-1.67-2.504-2.373-4.019-.704-1.514-1.378-2.97-2.022-4.368zm13.89.35c-.586.582-.528 1.892.176 3.93.469-.116.879-.378 1.23-.785.41-.408.909-1.282 1.495-2.621-.235-.466-.703-.67-1.407-.612-.644.058-1.143.088-1.494.088zm-4.308 4.63c-.703.233-.996.699-.879 1.397.234.641.527 1.253.88 1.835.937-.35 1.464-.96 1.582-1.835-.118-.349-.264-.757-.44-1.223-.176-.466-.557-.524-1.143-.174zM34.55 91.644v-.96c-.821-.234-1.29.087-1.407.96zm-.88 12.668c.352-2.038.528-3.844.528-5.417-.117-2.62-.176-4.688-.176-6.202a25.185 25.185 0 0 0-.88 6.64c0 1.863.177 3.523.528 4.979zm-9.23-10.221c-.118-.466-.323-.641-.616-.525-.293.117-.557.233-.791.35v15.55c.234 0 .703-.058 1.407-.174zm1.054 0c0 1.223-.029 2.475-.087 3.756a78.507 78.507 0 0 0-.088 3.757c0 2.854.263 5.3.79 7.338l2.287-.349c1.582-.35 2.696-.99 3.34-1.922.645-.99.967-2.184.967-3.582 0-.99-.176-2.621-.527-4.892-.352-2.272-.41-3.873-.176-4.805zm-4.131-.175c0 1.805-.059 3.582-.176 5.329l-.352 5.067c0 1.806.176 3.582.528 5.329.762-3.436 1.143-6.698 1.143-9.785l-.352-5.94zm-5.715 2.883c-.703.35-1.67.524-2.9.524-1.056 0-1.759-.408-2.11-1.223 0 1.63.117 3.582.351 5.853.234 2.272.469 4.252.703 5.941l7.912 1.572c.118-.698.235-2.213.352-4.542.117-2.33.176-3.553.176-3.67v-6.64zm0-16.425l2.55 7.077c-.528-.35-.996-1.107-1.407-2.272l-1.143-3.407zm8.264-27.257c.352-1.048.996-2.097 1.934-3.145.996-1.107 2.08-1.951 3.253-2.534-1.055.7-2.051 1.66-2.99 2.883a72.212 72.212 0 0 1-2.197 2.796zm3.956.699c.235-.932 1.084-1.747 2.55-2.446"/></g></g></svg>