<svg width="46" height="76" viewBox="0 0 46 76" fill="none" xmlns="http://www.w3.org/2000/svg">
<g filter="url(#filter0_d)">
<path d="M24.2137 8.16404C24.7939 7.89672 25.3893 7.95612 26 8.34226C26.6107 8.69869 27.0687 9.50066 27.374 10.7482C27.7099 11.9957 27.9237 13.5402 28.0153 15.3818C28.1069 17.1936 28.1527 19.6738 28.1527 22.8223C28.1527 23.0005 28.0458 23.6391 27.8321 24.7381C27.6183 25.8371 27.542 26.6242 27.6031 27.0995C28.6107 26.0302 29.771 25.4955 31.084 25.4955C31.5114 25.4955 31.9695 25.5846 32.458 25.7629C33.1603 26.743 33.7405 27.7975 34.1985 28.9262C34.687 30.0252 34.9313 31.1242 34.9313 32.2232C34.9313 33.0251 34.7939 33.7529 34.5191 34.4063C34.9771 35.3865 35.4809 36.4112 36.0305 37.4805C36.6107 38.5498 37.2672 39.4409 38 40.1538C38 41.134 37.6641 42.7676 36.9924 45.0547C36.3511 47.3418 36.0305 49.0052 36.0305 50.0448C34.229 52.5398 32.4122 55.02 30.5802 57.4853C29.8473 57.5744 29.2824 57.916 28.8855 58.51C28.3359 60.0248 27.9237 61.0199 27.6489 61.4951C27.374 61.9407 27.2061 62.7575 27.145 63.9456C27.084 65.1337 26.7939 65.9357 26.2748 66.3515C23.7099 66.9159 21.1756 67.4654 18.6718 68C18.0611 68 17.313 67.8812 16.4275 67.6436C15.542 67.4059 14.3359 66.8267 12.8092 65.906C11.2824 64.9852 10.2443 64.406 9.69466 64.1684C10.1221 63.3664 10.458 62.0743 10.7023 60.2922C10.9466 58.51 11.2672 57.2179 11.6641 56.416C10.8397 54.3962 10.0153 52.3616 9.19084 50.3121C8.39695 47.9359 8 45.7676 8 43.8072C8 42.53 8.18321 41.2528 8.54962 39.9756C9.49618 35.4905 10.4733 30.9608 11.4809 26.3866C11.3893 25.852 11.3435 25.4213 11.3435 25.0945V24.2926C11.7405 22.8371 12.0458 21.753 12.2595 21.0401C12.4733 20.2976 12.8397 19.7332 13.3588 19.3471C13.542 19.2283 13.8779 19.1986 14.3664 19.258C14.855 19.3174 15.2061 19.3471 15.4198 19.3471C15.8473 19.3471 16.1221 19.0946 16.2443 18.5897C16.3664 18.0847 16.4275 17.461 16.4275 16.7184C16.3664 15.6194 16.3359 14.8026 16.3359 14.2679C16.3359 13.3471 16.458 12.6194 16.7023 12.0848C16.9466 11.5204 17.313 11.1492 17.8015 10.9709C18.3206 10.7927 18.687 10.7036 18.9008 10.7036C19.145 10.7036 19.2977 10.7036 19.3588 10.7036C20.3969 10.7036 21.2061 11.0897 21.7863 11.862C22.0305 10.9115 22.2595 10.1096 22.4733 9.4561C22.687 8.77294 23.2672 8.34226 24.2137 8.16404ZM22.9771 9.32244C22.7939 9.88679 22.6718 10.5997 22.6107 11.461C22.5496 12.2927 22.5191 12.7679 22.5191 12.8868C22.5191 13.3026 22.5496 14.0303 22.6107 15.0699C22.6718 16.1095 22.7023 16.9263 22.7023 17.5204C23.0992 17.461 23.8015 17.3422 24.8092 17.1639C25.8473 16.9857 26.6565 16.9263 27.2366 16.9857V12.0848C27.2366 11.7581 27.2366 11.4165 27.2366 11.06C27.1145 10.6442 26.9924 10.1244 26.8702 9.50066C26.7786 8.8472 26.1374 8.52047 24.9466 8.52047C24.2137 8.52047 23.5573 8.78779 22.9771 9.32244ZM18.3969 11.2383C17.7863 11.7432 17.3588 12.3224 17.1145 12.9759C16.9008 13.5996 16.7939 14.3867 16.7939 15.3372C16.7939 15.7234 16.8244 16.362 16.8855 17.253C16.9466 18.1144 16.9771 18.7827 16.9771 19.258L19.7252 18.8124C20.458 18.8718 20.8855 18.8718 21.0076 18.8124C21.0076 17.8917 21.0382 17.0303 21.0992 16.2283C21.1908 15.3966 21.2672 14.5501 21.3282 13.6887C21.3282 12.9759 21.2977 12.4412 21.2366 12.0848C20.9008 11.5204 19.9542 11.2383 18.3969 11.2383ZM27.2366 17.5204C26.5954 17.4016 26.1221 17.3422 25.8168 17.3422C24.5038 17.3422 23.4656 17.6243 22.7023 18.1887C22.0305 19.6441 21.6947 20.9807 21.6947 22.1985C21.6947 22.4956 21.7557 22.8965 21.8779 23.4015C22.3664 23.4015 23.1908 23.3421 24.3511 23.2233C25.5114 23.0748 26.1221 23.0005 26.1832 23.0005C26.6107 23.0005 26.9618 23.0302 27.2366 23.0896C27.3588 22.6738 27.4504 22.0055 27.5114 21.0847C27.5725 20.1342 27.6031 19.4362 27.6031 18.9907L27.2366 17.5204ZM20.7328 19.3471C20 19.2283 19.4656 19.1986 19.1298 19.258C18.8244 19.3174 18.0763 19.5401 16.8855 19.9263C16.6412 20.3421 16.5649 20.8471 16.6565 21.4411C16.7481 22.0055 16.7328 22.6441 16.6107 23.3569C16.4885 24.0401 16.4275 24.4708 16.4275 24.649C16.4275 25.0054 16.5191 25.3767 16.7023 25.7629L21.2366 25.0054L21.0076 19.9263L20.7328 19.3471ZM14 19.7481C13.2977 19.8669 12.8855 20.253 12.7634 20.9065L11.7557 25.7629C11.9389 26.0005 12.2137 26.1193 12.5802 26.1193C13.4046 26.1193 14.2443 26.1193 15.0992 26.1193C14.6718 26.1193 14.3359 26.149 14.0916 26.2084C13.8473 26.3866 13.4504 26.55 12.9008 26.6985C12.3817 26.847 12.0305 26.9807 11.8473 27.0995C11.8473 29.9806 11.3435 32.8766 10.3359 35.7875C11.2824 35.4311 12.2595 35.0449 13.2672 34.6291C14.3053 34.1835 15.145 33.6341 15.7863 32.9806L16.0611 21.0847C15.9389 20.6094 15.6947 20.2233 15.3282 19.9263C14.9924 19.5996 14.5496 19.5401 14 19.7481ZM21.9695 24.649L21.8779 30.6638L22.1527 31.0648C22.3969 31.0054 22.7939 30.9608 23.3435 30.9311C23.9237 30.8717 24.458 30.8123 24.9466 30.7529C25.7099 30.7529 26.2443 30.7232 26.5496 30.6638C26.5496 29.7727 26.6565 28.6143 26.8702 27.1886C27.1145 25.7332 27.2977 24.649 27.4198 23.9361C26.7786 23.8173 26.3053 23.7579 26 23.7579C24.5649 23.7579 23.2214 24.055 21.9695 24.649ZM21.0076 25.7629C20.3359 25.7034 19.4809 25.8668 18.4427 26.2529C17.4046 26.6391 16.7634 26.8619 16.5191 26.9213C16.5802 28.941 16.6718 30.9311 16.7939 32.8915L20.6412 31.243L21.4198 26.8321L21.0076 25.7629ZM32.0916 26.2084C31.4809 26.0896 30.9771 26.0302 30.5802 26.0302C29.542 26.0302 28.7634 26.3866 28.2443 27.0995C28.1221 27.6044 28.0611 27.9757 28.0611 28.2133C28.0611 28.6292 28.1374 29.2232 28.2901 29.9955C28.4427 30.7677 28.5191 31.243 28.5191 31.4212C28.7634 31.837 28.8855 32.639 28.8855 33.8271C28.8855 35.0152 29.145 35.8469 29.6641 36.3221C29.8473 36.0251 29.9695 35.8469 30.0305 35.7875C29.7252 35.6093 29.6641 35.2677 29.8473 34.7628C30.0305 34.2281 30.0916 33.7826 30.0305 33.4261C30.0305 32.5648 30.7176 32.1341 32.0916 32.1341C32.6718 32.0747 33.0382 32.3568 33.1908 32.9806C33.3435 33.5746 33.542 33.9014 33.7863 33.9608C33.9084 33.6043 34.0305 33.1737 34.1527 32.6687C34.2748 32.1341 34.3359 31.5697 34.3359 30.9757C34.3359 30.1143 34.1527 29.342 33.7863 28.6589L32.0916 26.2084ZM22.1527 31.4212L21.8779 31.5994C20.5038 31.7776 18.8092 32.4311 16.7939 33.5598C14.8092 34.6885 13.3435 35.4014 12.3969 35.6984C10.9008 35.6984 9.96947 36.3964 9.60305 37.7924C9.38931 39.6934 9.22137 41.0003 9.09924 41.7132C9.22137 41.7132 9.38931 41.6389 9.60305 41.4904C9.84733 41.3419 10.0305 41.3567 10.1527 41.535C9.20611 42.2775 8.73282 43.228 8.73282 44.3864C8.73282 44.9211 8.82443 45.5448 9.00763 46.2577C9.19084 46.9408 9.34351 47.4903 9.46565 47.9062C9.61832 48.2923 10.1221 49.7923 10.9771 52.4061C11.8626 55.02 12.7481 56.5496 13.6336 56.9952C14.5496 57.411 15.1756 57.6486 15.5115 57.708C15.8779 57.7674 16.2748 57.7971 16.7023 57.7971C17.3435 57.7971 18.3817 57.6338 19.8168 57.3071C18.626 58.1684 17.2519 58.5991 15.6947 58.5991C15.1756 58.5991 14.7939 58.5694 14.5496 58.51L15.3282 58.7773C15.6947 58.8367 16.1832 58.8664 16.7939 58.8664C17.6794 58.8664 18.5344 58.6585 19.3588 58.2427C19.8473 58.5397 20.2595 58.4358 20.5954 57.9308C20.9313 57.3962 21.145 57.1288 21.2366 57.1288L21.4198 57.3071C21.0229 59.6833 20.6718 62.0595 20.3664 64.4357C20.3664 64.8515 20.4275 65.4901 20.5496 66.3515L20.2748 66.6188C19.8473 65.8466 19.6336 65.0297 19.6336 64.1684C19.6336 63.8119 19.6947 63.1436 19.8168 62.1634C19.9389 61.1832 20 60.6337 20 60.5149C19.5725 61.4357 19.2214 62.5941 18.9466 63.9901C18.7023 65.3862 18.5191 66.3218 18.3969 66.797C19.5878 66.9159 20.6107 66.8713 21.4656 66.6634C22.3511 66.4555 23.2061 66.203 24.0305 65.906C23.9084 65.104 24.0611 63.9159 24.4886 62.3416C24.9466 60.7674 25.2061 59.6981 25.2672 59.1338H24.3969C24.0305 59.1338 23.6336 59.0892 23.2061 59.0001C22.8092 58.911 22.5802 58.6585 22.5191 58.2427C23.4046 58.3615 24.3206 58.4506 25.2672 58.51C25.145 58.213 24.7939 58.0348 24.2137 57.9754C23.6641 57.916 23.1298 57.7823 22.6107 57.5744C22.1221 57.3368 21.7099 56.7279 21.374 55.7477C21.0687 54.7378 20.8244 53.9804 20.6412 53.4754C20.8855 53.6833 21.1298 54.114 21.374 54.7675C21.6489 55.3912 21.8779 55.7625 22.0611 55.8813C21.8779 55.0794 21.7099 54.3071 21.5573 53.5645C21.4046 52.7923 21.3282 52.0051 21.3282 51.2032C21.3282 50.6685 21.3588 50.2378 21.4198 49.9111L20.6412 53.4754L20.2748 53.119C20.2137 52.8814 20.1832 52.5249 20.1832 52.0497C20.1832 50.9507 20.5038 49.7477 21.145 48.4408C21.8168 47.1339 22.3359 46.1389 22.7023 45.4557C24.0153 44.7428 25.145 44.1488 26.0916 43.6735C27.0382 43.1686 27.9695 42.8567 28.8855 42.7379C29.1603 42.5003 29.1298 41.8617 28.7939 40.8221C28.4886 39.7825 28.3969 39.0845 28.5191 38.7281L27.145 39.2627L23.5725 40.1538C21.6794 41.3122 20.2748 42.2775 19.3588 43.0498C18.4733 43.7924 17.8473 44.7725 17.4809 45.9903H16.7023C16.8855 45.7527 16.916 45.3666 16.7939 44.8319C16.6718 44.2676 16.6718 43.8369 16.7939 43.5399L17.4809 44.5646C18.916 42.8419 20.5649 41.5052 22.4275 40.5548C24.3206 39.5746 26.4122 38.8023 28.7023 38.238L29.1145 37.2578C28.6565 37.0202 28.1527 36.9013 27.6031 36.9013C26.4122 37.0796 25.5267 37.1687 24.9466 37.1687C25.4656 36.9904 26.0458 36.8271 26.687 36.6786C27.3588 36.5004 27.9084 36.4112 28.3359 36.4112C28.3359 36.1142 28.3053 35.5499 28.2443 34.7182C28.1832 33.8568 28.1527 33.1737 28.1527 32.6687C27.2061 32.4311 26.6718 32.0747 26.5496 31.5994L22.1527 31.4212ZM30.6718 33.4261C30.4886 33.6043 30.3969 33.9014 30.3969 34.3172C30.3969 34.7033 30.458 35.0152 30.5802 35.2528L31.1756 34.8964C31.1145 35.3123 30.855 35.8915 30.3969 36.634C29.9695 37.3469 29.6794 37.9112 29.5267 38.3271C29.374 38.7132 29.2977 39.2033 29.2977 39.7973C29.2977 40.7181 29.4962 41.535 29.8931 42.2478C30.2901 42.931 30.9313 43.7626 31.8168 44.7428C31.3893 44.624 31.0382 44.5943 30.7634 44.6537C30.8244 45.0102 30.9008 45.3369 30.9924 45.6339H30.2137C30.0305 45.9309 29.9389 46.2131 29.9389 46.4804C29.9389 46.7775 30.0458 47.1933 30.2595 47.728C30.4733 48.2329 30.5802 48.5745 30.5802 48.7527C30.0916 48.6339 29.7557 48.2626 29.5725 47.6388C29.3893 46.9854 29.2672 46.5101 29.2061 46.2131C29.2061 45.827 29.2977 45.2923 29.4809 44.6092C29.6641 43.8963 29.7252 43.3914 29.6641 43.0943C26.6107 43.6884 24.1679 44.9656 22.3359 46.926C21.9695 48.2032 21.7863 49.6586 21.7863 51.2923C21.7863 52.8071 22.0305 54.2328 22.5191 55.5695C23.0992 56.312 23.8626 56.7873 24.8092 56.9952C25.7863 57.2031 26.9618 57.3071 28.3359 57.3071C29.5878 57.1288 30.7634 56.1784 31.8626 54.4556C32.9618 52.7328 33.6641 51.7378 33.9695 51.4705C33.7863 51.1141 33.9695 50.8022 34.5191 50.5349C35.0992 50.2675 35.4198 50.0002 35.4809 49.7329L36.8092 43.5399C36.6565 43.5399 36.3817 43.6438 35.9847 43.8518C35.5878 44.0597 35.3282 44.1636 35.2061 44.1636C35.0229 44.1636 34.855 43.9854 34.7023 43.629C36.2901 43.2132 37.2366 42.2775 37.542 40.8221C37.3588 40.3765 37.0534 39.931 36.626 39.4855C36.229 39.0399 35.7863 38.5647 35.2977 38.0597C34.9618 38.1786 34.5191 38.5201 33.9695 39.0845C33.4198 39.6191 32.916 39.8865 32.458 39.8865C32.0916 39.7676 31.6947 39.4855 31.2672 39.0399C30.8702 38.5647 30.8397 38.03 31.1756 37.436C31.4809 36.9607 31.8321 36.5301 32.229 36.1439C32.626 35.7281 33.0229 35.5796 33.4198 35.6984C32.5954 36.233 32.0611 36.6192 31.8168 36.8568C31.5725 37.0647 31.4198 37.436 31.3588 37.9706C31.542 38.7132 31.9695 39.1439 32.6412 39.2627C32.916 39.1439 33.1756 38.832 33.4198 38.3271C34.3359 38.3271 34.7939 37.9706 34.7939 37.2578C34.7939 37.139 34.7328 36.7825 34.6107 36.1885C34.4886 35.5647 34.4886 35.1637 34.6107 34.9855C34.3053 34.7182 33.9389 34.5845 33.5114 34.5845C33.145 34.5845 32.7481 34.6885 32.3206 34.8964C31.9237 35.0746 31.6336 35.1934 31.4504 35.2528C31.2672 34.8667 31.5114 34.5548 32.1832 34.3172C32.8855 34.0796 33.0382 33.7232 32.6412 33.2479C32.458 33.1291 32.1069 33.0994 31.5878 33.1588C31.0992 33.2182 30.7939 33.3073 30.6718 33.4261ZM12.5802 57.4853C12.0916 58.109 11.7405 59.1783 11.5267 60.6932C11.3435 62.208 11.1603 63.1585 10.9771 63.5446C13.0534 64.5545 15.1603 65.5792 17.2977 66.6188L18.7634 59.312C18.458 59.312 17.9237 59.3565 17.1603 59.4456C16.4275 59.505 15.8779 59.5348 15.5115 59.5348C14.9924 59.5348 14.5802 59.505 14.2748 59.4456C13.9695 59.3565 13.7557 59.015 13.6336 58.4209C13.5115 57.7971 13.1603 57.4853 12.5802 57.4853ZM25.4504 65.4604L25.9084 65.0594C25.9084 64.406 26.1527 63.1882 26.6412 61.406C27.1603 59.5942 27.4198 58.6585 27.4198 58.5991C26.9618 59.7575 26.5191 60.9308 26.0916 62.1189C25.6641 63.307 25.4504 64.4208 25.4504 65.4604ZM18.5802 63.5446C19.0382 62.0595 19.4809 60.5892 19.9084 59.1338C19.6031 59.6981 19.3282 60.3813 19.084 61.1832C18.8702 61.9555 18.7023 62.7426 18.5802 63.5446ZM24.4886 65.6386C25.0076 64.1238 25.4046 62.8466 25.6794 61.807C25.9542 60.7674 26.1527 59.8763 26.2748 59.1338C25.3282 61.0941 24.7634 62.4308 24.5802 63.1436C24.3969 63.8268 24.3664 64.6585 24.4886 65.6386ZM16.0611 39.9756C17.374 39.8568 19.0382 39.4112 21.0534 38.6389C23.0992 37.837 24.3969 37.3766 24.9466 37.2578C24.458 37.3766 23.0992 37.8964 20.8702 38.8172C18.6718 39.7082 16.8855 40.1538 15.5115 40.1538C14.4427 40.1538 13.4962 40.2429 12.6718 40.4211C11.8779 40.5696 11.0992 40.8518 10.3359 41.2676C11.0992 40.7924 11.8779 40.436 12.6718 40.1983C13.4962 39.931 14.2443 39.7973 14.916 39.7973C15.1908 39.7973 15.5725 39.8568 16.0611 39.9756ZM29.4809 30.3074C29.9084 29.7727 30.5954 29.5054 31.542 29.5054C32.2137 29.5054 32.7176 29.6836 33.0534 30.04L29.4809 30.3074ZM22.3359 32.3123C22.5191 32.8766 22.4275 33.6043 22.0611 34.4954C22 34.3172 22.0611 33.9756 22.2443 33.4707C22.4275 32.936 22.458 32.5499 22.3359 32.3123ZM12.3969 31.4212C12.5802 31.0351 12.8702 30.7677 13.2672 30.6192C13.6947 30.4707 14.2748 30.3668 15.0076 30.3074C14.5802 30.3668 14.1069 30.5598 13.5878 30.8866C13.0992 31.1836 12.7023 31.3618 12.3969 31.4212ZM33.6031 35.6093C34.0305 35.3717 34.3053 35.2528 34.4275 35.2528C34 35.5499 33.7252 35.6687 33.6031 35.6093Z" fill="#CD4138"/>
</g>
<defs>
<filter id="filter0_d" x="0" y="0" width="46" height="76" filterUnits="userSpaceOnUse" color-interpolation-filters="sRGB">
<feFlood flood-opacity="0" result="BackgroundImageFix"/>
<feColorMatrix in="SourceAlpha" type="matrix" values="0 0 0 0 0 0 0 0 0 0 0 0 0 0 0 0 0 0 127 0"/>
<feOffset/>
<feGaussianBlur stdDeviation="4"/>
<feColorMatrix type="matrix" values="0 0 0 0 0.803922 0 0 0 0 0.254902 0 0 0 0 0.219608 0 0 0 0.9 0"/>
<feBlend mode="normal" in2="BackgroundImageFix" result="effect1_dropShadow"/>
<feBlend mode="normal" in="SourceGraphic" in2="effect1_dropShadow" result="shape"/>
</filter>
</defs>
</svg>
