<svg width="66" height="58" viewBox="0 0 66 58" fill="none" xmlns="http://www.w3.org/2000/svg">
<g filter="url(#filter0_d)">
<path d="M8 10.033C8 9.45623 8.2172 8.98043 8.65161 8.60556C9.11497 8.20185 9.6797 8 10.3458 8C10.6933 8 11.0408 8.08651 11.3884 8.25953C12.344 9.75901 13.9079 11.6189 16.0799 13.8393C18.2809 16.0309 19.6276 17.4583 20.1199 18.1215C20.1199 17.4006 20.3661 16.7662 20.8584 16.2183C21.3797 15.6416 21.9878 15.3532 22.6829 15.3532C23.0594 15.2379 23.5372 15.2667 24.1164 15.4398C24.7246 15.6128 25.1445 15.6416 25.3762 15.5263C25.6658 14.6035 26.3029 13.9258 27.2876 13.4933C28.2722 13.0319 29.2858 12.8012 30.3284 12.8012C31.0524 13.2049 31.5592 13.4068 31.8488 13.4068C32.1384 13.4068 32.3122 13.1761 32.3701 12.7147C32.6308 11.9361 33.181 11.4459 34.0208 11.2441C34.8897 11.0422 35.9178 10.9413 37.1051 10.9413C38.4083 11.691 39.5088 12.8157 40.4066 14.3151C41.3044 15.7858 42.0429 16.9969 42.6221 17.9485C42.5062 18.4099 42.6655 19.1164 43.0999 20.068C43.5633 21.0196 43.795 21.5819 43.795 21.7549C45.8511 19.1596 47.6756 16.9969 49.2685 15.2667C50.8902 13.5077 52.7437 12.6282 54.8288 12.6282C55.466 12.6282 56.1176 12.758 56.7837 13.0175C57.4787 13.277 57.8842 13.9979 58 15.1802C57.9421 15.5263 57.609 15.8435 57.0009 16.1318C56.4217 16.3913 55.7845 16.6653 55.0895 16.9537C54.4234 17.6746 53.7139 18.9434 52.9609 20.76C52.2369 22.5479 51.6432 23.7013 51.1798 24.2204C50.2241 25.9217 49.4422 27.897 48.8341 30.1462C47.5888 31.8187 46.3 33.5345 44.9679 35.2935C43.6357 37.0525 42.2601 38.4943 40.841 39.6189C40.6672 39.9361 40.5514 40.2533 40.4935 40.5705C40.4356 40.8877 40.4066 41.2482 40.4066 41.6519C40.4066 41.9691 40.4356 42.4305 40.4935 43.036C40.5514 43.6128 40.5804 44.0742 40.5804 44.4202C40.5804 44.7662 40.5514 45.0546 40.4935 45.2853C39.7695 46.0639 39.2192 46.6406 38.8427 47.0154C38.4663 47.3615 37.3513 48.2122 35.4978 49.5675C35.2082 49.6828 34.7593 49.7837 34.1512 49.8702C33.572 49.9567 32.9493 50 32.2832 50C30.9221 50 29.5899 49.827 28.2867 49.4809C26.9835 49.1061 25.6224 48.5726 24.2033 47.8805C23.9716 47.2173 23.7689 46.3811 23.5951 45.3718C23.4214 44.3337 23.2766 43.31 23.1607 42.3007C21.5969 40.5129 20.3371 38.1771 19.3814 35.2935C18.223 30.9969 17.0501 26.6859 15.8627 22.3605C13.5459 19.8229 11.649 17.689 10.172 15.9588C8.72401 14.1998 8 12.2245 8 10.033ZM8.82537 9.34089C8.70953 9.91761 8.65161 10.3646 8.65161 10.6818C8.65161 11.6045 8.88329 12.4696 9.34666 13.277C9.81002 14.0844 10.4906 14.8919 11.3884 15.6993C11.8228 15.757 12.2572 15.6128 12.6916 15.2667C13.126 14.9207 13.5604 14.5747 13.9948 14.2286C13.85 14.6323 13.6473 14.9351 13.3866 15.137C13.126 15.3388 12.6771 15.656 12.04 16.0886C12.2716 17.1267 12.8509 17.9485 13.7776 18.5541C13.9224 18.1504 14.3278 17.5736 14.9939 16.8239C15.689 16.0742 16.0365 15.4686 16.0365 15.0072C15.7179 14.6612 15.4283 14.3584 15.1677 14.0989C14.907 13.8105 14.6609 13.6663 14.4292 13.6663C14.2554 13.6663 14.0817 13.8249 13.9079 14.1421L14.2554 13.0608C14.0817 12.8877 13.5749 12.1092 12.735 10.725C11.8952 9.34089 11.1277 8.64882 10.4327 8.64882C9.88242 8.64882 9.34666 8.87951 8.82537 9.34089ZM36.2363 11.4604C35.2806 11.6334 34.4553 11.8352 33.7602 12.0659C33.0941 12.2678 32.7321 12.7436 32.6742 13.4933L33.0217 21.5819C33.4851 21.7549 34.1222 21.7693 34.9331 21.6251C35.744 21.4521 36.2074 21.3656 36.3232 21.3656C35.4833 22.0288 34.4408 22.3605 33.1955 22.3605C33.2534 22.7065 33.4127 23.2255 33.6733 23.9176C33.934 24.5808 34.0933 25.0134 34.1512 25.2152L35.4978 24.7394C36.106 24.5664 36.6128 24.7683 37.0182 25.345C37.4237 25.8929 37.7567 26.3399 38.0174 26.6859C38.4807 25.2152 38.7414 23.0237 38.7993 20.1112C38.8572 17.1699 38.9441 15.2091 39.0599 14.2286C39.4075 14.4593 39.6102 14.9063 39.6681 15.5695C39.726 16.2039 39.7984 16.8095 39.8853 17.3862L40.6672 16.0886C40.2618 15.137 39.6826 14.2863 38.9296 13.5366C38.1767 12.758 37.2789 12.0659 36.2363 11.4604ZM30.1546 13.3203C29.0831 13.4933 28.2433 13.7096 27.6351 13.9691C27.0559 14.1998 26.5346 14.6612 26.0712 15.3532C26.5346 19.0154 27.0125 21.7405 27.5048 23.5283C28.0261 25.2873 29.0976 26.9022 30.7194 28.3728C30.7194 28.1421 30.8642 27.9403 31.1538 27.7673C31.4434 27.5942 31.6461 27.4789 31.7619 27.4212C32.3122 27.1905 32.7611 27.1473 33.1086 27.2915C33.4561 27.4356 33.9629 27.7096 34.629 28.1133L33.0217 24.7394C32.4715 25.1143 31.9791 25.3883 31.5447 25.5613C31.1103 25.7343 30.5891 25.8208 29.9809 25.8208C29.865 25.8785 29.7492 25.8352 29.6334 25.691C29.5175 25.5469 29.4596 25.4459 29.4596 25.3883C29.6913 25.2729 30.227 25.1287 31.0669 24.9557C31.9357 24.7539 32.5294 24.5088 32.848 24.2204C32.4715 23.3841 32.2108 22.5191 32.066 21.6251C31.9212 20.7024 31.8488 19.621 31.8488 18.3811C31.8488 17.7178 31.8488 17.069 31.8488 16.4346C31.8488 15.7714 31.8778 15.1226 31.9357 14.4882C31.6461 13.7096 31.0524 13.3203 30.1546 13.3203ZM56.6099 13.4933C56.2913 13.4356 55.8425 13.4068 55.2632 13.4068C53.6704 13.4068 52.2514 13.8682 51.0061 14.7909C49.7608 15.7137 48.6313 16.9104 47.6177 18.3811C47.5598 18.7271 47.8349 19.2173 48.4431 19.8517C49.0802 20.4573 49.2685 20.9331 49.0078 21.2791C48.5445 21.2791 48.0956 20.9907 47.6612 20.414C47.2557 19.8084 46.9661 19.448 46.7924 19.3326C46.4448 19.6498 46.0683 20.0247 45.6629 20.4573C45.2864 20.8898 44.6638 21.7837 43.795 23.139C44.0846 24.033 44.4031 24.9269 44.7506 25.8208C45.0982 26.7147 45.605 27.4212 46.2711 27.9403C45.5471 27.6519 44.9679 27.1473 44.5334 26.4264C44.099 25.6766 43.6357 24.7106 43.1434 23.5283C42.68 23.8167 42.4483 24.2492 42.4483 24.826C42.4483 25.4315 42.4483 26.0227 42.4483 26.5994C42.3904 26.2533 42.2456 26.0515 42.0139 25.9938C42.0139 26.3975 42.0718 26.8301 42.1877 27.2915C42.3035 27.724 42.4483 28.243 42.6221 28.8486C41.8981 27.6663 41.5361 26.3543 41.5361 24.9125L39.0599 26.2533C39.002 26.6571 38.8138 27.0463 38.4952 27.4212C38.1767 27.7673 37.8871 28.0556 37.6264 28.2863C36.8155 28.1133 35.9902 28.4161 35.1503 29.1946C34.3105 29.9444 33.6009 30.3481 33.0217 30.4058C32.2398 30.723 31.6606 31.2709 31.2841 32.0494C30.9076 32.7992 30.5601 33.7652 30.2415 34.9475C30.7339 36.0144 31.1103 36.8218 31.371 37.3697C31.6316 37.8888 32.066 38.5232 32.6742 39.2729C33.6588 39.4459 34.6869 39.5324 35.7585 39.5324C37.1196 39.5324 38.3359 39.4459 39.4075 39.2729C40.6528 38.8115 41.9705 37.7446 43.3606 36.0721C44.7796 34.3708 46.3145 32.482 47.9652 30.4058C48.5444 28.4737 49.0078 27.0319 49.3553 26.0803C49.7318 25.1287 50.2821 24.0906 51.0061 22.966L50.1807 22.62C50.2386 22.447 50.3545 22.3605 50.5282 22.3605C50.702 22.3605 50.8902 22.3605 51.093 22.3605L50.5282 21.8414C51.1943 21.8414 51.6432 21.7549 51.8749 21.5819C52.3383 20.1401 53.0333 18.7848 53.96 17.516C54.8868 16.2472 56.0017 15.2667 57.305 14.5747L57.2181 14.1421L56.6099 13.4933ZM16.9922 15.9156C16.8763 15.7137 16.7026 15.6128 16.4709 15.6128C16.2392 15.6128 16.0944 15.7425 16.0365 16.0021C16.1523 16.2904 16.0654 16.6076 15.7758 16.9537C15.5152 17.2997 15.327 17.5304 15.2111 17.6457L15.0374 17.4727C15.269 17.242 15.3559 17.069 15.298 16.9537C15.1822 17.069 14.9505 17.4006 14.603 17.9485L15.2111 17.862C14.574 18.2657 14.2554 18.6694 14.2554 19.0731C14.2554 19.448 14.4871 19.8517 14.9505 20.2842C15.4138 20.7168 15.9786 21.207 16.6447 21.7549C16.8184 21.6395 17.2094 21.1926 17.8175 20.414C18.4547 19.6354 18.976 19.1596 19.3814 18.9866L16.9922 15.9156ZM21.6403 16.4346C21.2059 16.6653 20.9163 17.0113 20.7715 17.4727C20.6267 17.9053 20.5543 18.4387 20.5543 19.0731C21.3362 21.9856 22.0892 24.3646 22.8132 26.2101C23.5662 28.0268 25.0142 29.1946 27.1573 29.7137C27.0993 29.1946 27.2152 28.7621 27.5048 28.4161C27.7944 28.0412 28.2143 27.7096 28.7646 27.4212C28.446 26.6426 28.1419 26.2533 27.8523 26.2533C27.8523 26.484 27.7075 26.6859 27.4179 26.8589C27.1283 27.0031 26.9835 27.1329 26.9835 27.2482C26.4912 27.4212 26.0133 27.5077 25.55 27.5077C24.9997 27.5077 24.5798 27.3924 24.2902 27.1617C24.8404 27.1617 25.3038 27.104 25.6803 26.9887C26.0568 26.8445 26.7808 26.484 27.8523 25.9073C27.4469 24.898 27.0414 23.7013 26.636 22.3172C26.2595 20.9331 25.8396 18.9722 25.3762 16.4346C24.7101 16.0886 24.0585 15.9156 23.4214 15.9156C22.7553 15.9156 22.1616 16.0886 21.6403 16.4346ZM40.7541 16.9537L40.6672 17.4727C40.7252 17.3574 40.7541 17.242 40.7541 17.1267V16.9537ZM41.2754 17.6457C40.812 18.1936 40.3487 18.7703 39.8853 19.3759C39.4509 19.9526 39.3496 20.5582 39.5812 21.1926C40.0156 21.1349 40.4645 20.8754 40.9279 20.414C41.3913 19.9526 41.7243 19.6931 41.927 19.6354C42.0429 20.2122 41.6085 20.8033 40.6238 21.4089C39.6392 21.9856 39.2916 22.6344 39.5812 23.3553C40.3052 23.4706 40.812 23.5283 41.1017 23.5283C41.8836 23.5283 42.4483 23.2832 42.7958 22.793C42.8538 22.0433 42.6221 21.0628 42.1008 19.8517C41.6085 18.6406 41.3333 17.9053 41.2754 17.6457ZM20.1199 19.8084C19.6276 20.0391 19.1063 20.3563 18.556 20.76C18.0058 21.1637 17.4845 21.553 16.9922 21.9279C16.8184 22.5623 16.8039 23.139 16.9487 23.6581C17.0935 24.1483 17.3831 24.8692 17.8175 25.8208C18.223 25.8785 18.8312 25.7631 19.642 25.4748C20.4819 25.1576 21.148 25.0999 21.6403 25.3018C20.9742 24.2925 20.3516 23.2832 19.7724 22.2739C20.2937 22.9372 20.7281 23.3841 21.0756 23.6148C21.0756 23.1246 20.8729 22.5623 20.4674 21.9279C20.062 21.2647 19.8303 20.8465 19.7724 20.6735L20.2937 20.8465L20.1199 19.8084ZM40.4935 24.2204L39.755 23.8744L39.4944 24.2204H40.4935ZM34.4553 26.1668L35.0634 27.5942C36.3087 27.7096 37.0762 27.4356 37.3658 26.7724C37.3658 26.0803 37.0762 25.7343 36.497 25.7343C36.1784 25.7343 35.8309 25.792 35.4544 25.9073C35.0779 26.0227 34.7449 26.1092 34.4553 26.1668ZM19.8593 25.8208C19.0194 26.0515 18.4692 26.2678 18.2085 26.4696C17.9479 26.6715 17.9044 27.0175 18.0782 27.5077C19.2076 31.1699 20.3371 34.8321 21.4665 38.4943C22.0458 39.6766 22.596 40.5561 23.1173 41.1329C23.6675 41.6807 24.3915 41.9547 25.2893 41.9547C25.6368 41.9547 25.8975 41.9259 26.0712 41.8682C26.7373 41.8682 27.5337 41.5942 28.4605 41.0463C29.4162 40.4696 30.0967 40.1813 30.5022 40.1813C30.3284 40.4696 30.1981 40.7003 30.1112 40.8733C30.0243 41.0463 30.0388 41.2482 30.1546 41.4789C30.7049 40.9598 30.98 40.3975 30.98 39.792C30.98 39.2152 30.7918 38.6529 30.4153 38.105C30.0678 37.5283 29.7492 36.9804 29.4596 36.4614C29.5754 35.3944 29.7202 34.3275 29.894 33.2606C29.894 33.0875 30.0822 32.6838 30.4587 32.0494C30.8642 31.3862 31.0669 30.9392 31.0669 30.7085C31.0669 30.3337 30.8207 30.0597 30.3284 29.8867C30.0967 30.2904 29.6478 30.5355 28.9818 30.622C28.3446 30.6797 27.8813 30.7662 27.5917 30.8816C25.0431 29.9876 23.2042 28.4161 22.0747 26.1668L19.8593 25.8208ZM32.9348 27.9403C32.8769 28.0556 32.5004 28.2142 31.8054 28.4161C31.1393 28.6179 31.009 29.0216 31.4144 29.6272C31.9936 29.8002 32.4715 29.8002 32.848 29.6272C33.2534 29.4542 33.7312 29.1946 34.2815 28.8486C34.0208 28.5314 33.8036 28.2719 33.6299 28.07C33.4561 27.8682 33.2244 27.8249 32.9348 27.9403ZM29.1121 28.4593C28.9962 28.5747 28.6922 28.7188 28.1998 28.8919C27.7365 29.036 27.6206 29.3388 27.8523 29.8002H28.5473C28.8659 29.6272 29.1266 29.4686 29.3293 29.3244C29.532 29.1802 29.6044 28.9495 29.5465 28.6323L29.1121 28.4593ZM32.1095 40.3543L31.9357 40.7003C32.0515 41.2194 32.1529 42.4737 32.2398 44.4634C32.3267 46.4531 32.7032 47.9094 33.3692 48.8321C34.267 48.8898 35.0779 48.7168 35.8019 48.3131C36.5549 47.9094 37.192 47.2894 37.7133 46.4531C37.5395 46.1648 37.4237 45.8187 37.3658 45.415C37.3078 44.9825 37.2789 44.5355 37.2789 44.0742V42.5602C37.2789 42.3296 37.2789 42.07 37.2789 41.7817C37.163 41.5221 37.1051 41.3635 37.1051 41.3059L34.8028 41.7817C33.8471 41.6375 33.3113 41.3347 33.1955 40.8733C33.3692 40.758 33.5864 40.7724 33.8471 40.9166C34.1367 41.0608 34.3394 41.104 34.4553 41.0463C35.0345 41.0463 35.5413 41.0319 35.9757 41.0031C36.439 40.9743 36.8155 40.8445 37.1051 40.6138C35.5702 40.6138 33.905 40.5273 32.1095 40.3543ZM31.2407 40.3543C31.0669 41.0463 30.98 41.7528 30.98 42.4737C30.98 43.31 31.0814 44.5067 31.2841 46.0639C31.4868 47.621 31.5882 48.6014 31.5882 49.0051H32.6742C32.2398 48.0824 31.9212 46.5685 31.7185 44.4634C31.5158 42.3584 31.3565 40.9887 31.2407 40.3543ZM38.1911 40.5273C38.2491 40.6426 38.0608 40.9022 37.6264 41.3059V43.2523C37.6264 44.6076 37.8436 45.5304 38.278 46.0206C38.4518 45.3574 38.5387 44.7374 38.5387 44.1607C38.4807 43.036 38.4518 42.1421 38.4518 41.4789V40.6138L38.1911 40.5273ZM29.4596 41.3059C28.5039 41.7961 27.693 42.171 27.0269 42.4305C26.3898 42.69 25.7237 42.8198 25.0287 42.8198C25.7816 42.8198 26.3174 42.7909 26.636 42.7333C26.9835 42.6756 27.9247 42.4161 29.4596 41.9547V41.3059ZM39.2337 41.4789V43.3388C39.2337 44.0597 39.2916 44.5644 39.4075 44.8527L39.2337 41.4789ZM30.3284 41.9547C30.2126 42.7621 30.1546 43.4109 30.1546 43.9011C30.1546 45.4295 30.4008 46.8424 30.8931 48.1401C30.9511 47.8517 30.98 47.3759 30.98 46.7127C30.98 46.0206 30.9511 45.2564 30.8931 44.4202C30.8352 43.5839 30.7773 42.7621 30.7194 41.9547H30.3284ZM29.7202 42.3872C28.9383 42.6756 28.0261 42.964 26.9835 43.2523C25.9699 43.5118 25.0431 43.6704 24.2033 43.7281L25.0287 47.448L30.3284 48.8321L29.7202 42.3872Z" fill="#CD4138"/>
</g>
<defs>
<filter id="filter0_d" x="0" y="0" width="66" height="58" filterUnits="userSpaceOnUse" color-interpolation-filters="sRGB">
<feFlood flood-opacity="0" result="BackgroundImageFix"/>
<feColorMatrix in="SourceAlpha" type="matrix" values="0 0 0 0 0 0 0 0 0 0 0 0 0 0 0 0 0 0 127 0"/>
<feOffset/>
<feGaussianBlur stdDeviation="4"/>
<feColorMatrix type="matrix" values="0 0 0 0 0.803922 0 0 0 0 0.254902 0 0 0 0 0.219608 0 0 0 0.9 0"/>
<feBlend mode="normal" in2="BackgroundImageFix" result="effect1_dropShadow"/>
<feBlend mode="normal" in="SourceGraphic" in2="effect1_dropShadow" result="shape"/>
</filter>
</defs>
</svg>
