<svg xmlns="http://www.w3.org/2000/svg" width="88" height="80" viewBox="0 0 88 80"><g><g><path fill="#cd4138" d="M88 7.52c-.477 4.895-.836 9.063-1.074 12.502-.239 3.439-1.403 6.295-3.492 8.568l-5.46 8.656H76.63a501.853 501.853 0 0 0-7.7-5.946 20.67 20.67 0 0 0-6.803-3.41l-2.148 8.22c-.716.757-3.94 3.817-9.669 9.18-5.67 5.362-8.862 10.666-9.578 15.912-.896 1.166-1.731 3.44-2.507 6.82-.776 3.322-1.522 5.537-2.238 6.645a6.866 6.866 0 0 1-3.67 1.049c-1.731 0-3.402-.554-5.014-1.661-1.79-1.866-2.685-4.547-2.685-8.044 0-1.166.089-2.419.268-3.76.18-1.398.507-2.827.985-4.284-2.328.233-4.655.408-6.983.525-.358.116-.716-.088-1.074-.612-.358-.525-.716-.729-1.074-.612-.896 1.166-2.209 4.896-3.94 11.191C11.132 74.696 8.386 78.543 4.567 80c-1.91 0-3.432-.583-4.566-1.749a3731.911 3731.911 0 0 1 9.042-43.366c.238-1.224.06-2.768-.537-4.634-.538-1.923-.806-3.176-.806-3.76 0-.64.179-1.427.537-2.36 4.058-3.555 9.698-7.198 16.92-10.929a6902.046 6902.046 0 0 0 16.293-8.568C48.909 3.06 56.429 1.515 64.009 0c3.64 0 6.922.816 9.847 2.448zM56.667 2.272c-.597.117-2.148.437-4.655.962-2.506.466-5.341.99-8.504 1.574-3.104.583-5.55 1.952-7.341 4.109a25.798 25.798 0 0 0-2.954 1.749c-.836.524-1.701.787-2.597.787-2.088.932-4.714 2.39-7.877 4.371-3.164 1.982-5.61 3.44-7.341 4.372.716 0 1.76-.32 3.133-.962 1.373-.7 2.298-1.05 2.775-1.05-.776.875-2.447 1.837-5.013 2.886-2.566.99-4.088 2.302-4.566 3.934 0 3.148-.567 6.908-1.7 11.28-1.075 4.313-2.268 9.092-3.581 14.338a6.78 6.78 0 0 0 1.342.262c.538.058.806.262.806.612-.477.525-.955.787-1.432.787l1.074 1.05c-.12.466-.537.64-1.253.524-.716-.117-1.373 1.282-1.97 4.197-.537 2.914-1.223 6.994-2.059 12.24 0 1.457.18 2.915.537 4.372a114.814 114.814 0 0 0-1.97 3.322c.478.525 1.194.787 2.15.787h1.074a37.502 37.502 0 0 0 1.522-.7c.477-.29.954-.728 1.432-1.311.477-.583 1.044-1.486 1.7-2.71a568.29 568.29 0 0 0 1.791-5.334c0-.816-.418-1.486-1.253-2.01 1.194-.817 2.148-2.099 2.865-3.848a85.27 85.27 0 0 0 2.059-5.245c0-.35-.21-.554-.627-.612a6.794 6.794 0 0 1-1.164-.263l-.179-1.486 2.865-.525a402.996 402.996 0 0 0 3.312-10.929c0-1.399-.298-2.652-.895-3.76.358-.349.836-.203 1.432.438.657.583 1.224.67 1.701.262l-.985 1.661c2.567.583 4.656-.262 6.267-2.535-1.432-.816-2.417-1.574-2.954-2.273-1.074 0-1.612-.437-1.612-1.312.24-.816.418-1.486.538-2.01.119-.525.119-.992 0-1.4.358 0 .716.32 1.074.962-.239 1.749.835 3.177 3.223 4.284 2.387 1.05 3.76 2.07 4.118 3.06-.12-.99-.687-2.098-1.701-3.322-.955-1.282-1.492-2.098-1.612-2.448l4.029 3.41c0-.583-.239-1.4-.716-2.448-.478-1.108-.717-1.953-.717-2.536.836 1.166 1.582 2.07 2.238 2.71.717.583 1.075 1.283 1.075 2.099 0 .583-.12 1.282-.358 2.098a48.504 48.504 0 0 0-.806 2.973c-.298 1.166-1.462 4.284-3.491 9.355-2.03 5.071-3.044 8.976-3.044 11.716 0 2.273.418 4.43 1.253 6.47.597-1.807 1.134-3.293 1.611-4.46.538-1.223 1.522-1.835 2.955-1.835 2.447 0 3.939.787 4.476 2.36.955-2.914 1.91-5.8 2.865-8.655a9.796 9.796 0 0 1-1.88.175h-1.343c-1.731 0-3.104-.35-4.118-1.05.298-.116.597-.174.895-.174h.985l-1.433-1.225c.478-.524 1.134-.786 1.97-.786.597 0 1.522.291 2.775.874 1.313.525 2.357.67 3.133.437.358-1.923 1.612-4.313 3.76-7.17 2.208-2.855 3.462-4.517 3.76-4.983l-1.7-1.486-.378-.345.02-.005-.041-.014-2.377-2.172c.895.292 2.059.816 3.491 1.574 1.492.758 2.477 1.137 2.955 1.137.955 0 1.88-.642 2.775-1.924 3.163-1.69 5.58-5.333 7.251-10.929 1.73-5.654 3.64-9.297 5.73-10.929 3.58-.35 6.743.35 9.489 2.099a304.252 304.252 0 0 0 7.61 4.546 12.109 12.109 0 0 0 2.595-5.333c.478-1.982.716-4.343.716-7.082v-4.46c0-.932-.984-1.573-2.954-1.923-1.97-.408-5.162-1.574-9.579-3.497-4.356-1.982-7.818-2.973-10.384-2.973-2.208 0-4.237.408-6.088 1.224zm11.549 20.284l11.19 8.569c0-.117.239-.408.716-.875.478-.524.597-.961.358-1.311-1.313-1.749-2.924-3.09-4.834-4.022-1.91-.99-4.387-2.04-7.43-3.147zm-.896 1.05a51.946 51.946 0 0 0 4.119 3.584c1.61 1.166 3.043 2.07 4.297 2.71-.717-.99-1.731-2.01-3.044-3.06-1.253-1.107-3.044-2.185-5.372-3.234zm-57.383.524c-.478.466-.716.991-.716 1.574 0 .641.179 1.137.537 1.486zm58.279 3.41l-2.775-1.399 3.67 2.448zm9.31 6.47c.179-.117.268-.233.268-.35 0-.116.06-.437.18-.962-1.254-.466-2.328-.99-3.223-1.573-.836-.583-1.492-1.05-1.97-1.4zM27.662 41.88c.896 0 1.343-.117 1.343-.35-.656-.233-1.104-.35-1.343-.35zM17.636 55.257l.895 1.486c.955.233 1.7.35 2.238.35.955 0 2-.233 3.133-.7a77.259 77.259 0 0 1 2.686-1.136c1.134-3.905 2.298-7.84 3.491-11.803h-2.417c-.239 2.04-.597 3.613-1.074 4.72-.478 1.05-1.462 1.983-2.954 2.799a57.689 57.689 0 0 0 1.88-3.235c.596-1.166.895-2.36.895-3.585 0-.583-.06-1.05-.18-1.399-.596.233-1.461.583-2.595 1.05-1.075.466-1.91.786-2.507.961zm16.472 11.279c-.836-.35-1.462-.554-1.88-.613-.358-.058-.716.146-1.074.613.895.757 1.999.874 3.312.35zm-4.924 1.836c-.358 1.399-.537 2.244-.537 2.535 0 .583.298 1.05.895 1.399 1.433.233 2.537.35 3.312.35.717 0 1.314-.233 1.791-.7.597-1.69.597-2.885 0-3.584-.358.233-.955.204-1.79-.088a70.538 70.538 0 0 1-2.418-.962c-.477 0-.895.35-1.253 1.05zm-.895 3.934c1.552 1.807 3.193 2.39 4.924 1.749-1.373-.234-2.388-.438-3.044-.612-.657-.175-1.283-.554-1.88-1.137zM2.417 75.191v-1.836l-.716 2.186zm31.154-20.809c2.208 0 4.028.73 5.46 2.186m25.335-54.47c.836-.233 1.76-.116 2.775.35l2.507 1.836zm-18.93 40.817l.022.019c-.472.11-.973.05-1.503-.18a9.443 9.443 0 0 1-1.432-.874zM55.594 29.29c.716-2.973 1.73-5.683 3.044-8.131 1.373-2.449 3.223-4.372 5.55-5.771-1.97 1.632-3.61 4.138-4.923 7.52-.12-.118-.18-.292-.18-.526-.775.7-1.432 1.75-1.969 3.148a537.057 537.057 0 0 1-1.522 3.76zm-33.75 21.158c.24.117.448.466.627 1.05.179.524.507.64.985.349-.955.758-1.552.641-1.79-.35z"/></g></g></svg>