<svg width="100" height="40" viewBox="0 0 100 40" fill="none" xmlns="http://www.w3.org/2000/svg">
<path fill-rule="evenodd" clip-rule="evenodd" d="M20 40C31.0457 40 40 31.0457 40 20C40 8.9543 31.0457 0 20 0C8.9543 0 0 8.9543 0 20C0 31.0457 8.9543 40 20 40ZM13.2286 15.3714C13.2571 16.0571 13.2571 29.2857 13.2571 30H10V10H13.0571L26.7714 24.6286C26.7429 23.9429 26.7429 10.7429 26.7429 10H30V30H26.9429L13.2286 15.3714Z" fill="#FDFDFD"/>
<path fill-rule="evenodd" clip-rule="evenodd" d="M80 37C89.3888 37 97 29.3888 97 20C97 10.6112 89.3888 3 80 3C70.6112 3 63 10.6112 63 20C63 29.3888 70.6112 37 80 37ZM80 40C91.0457 40 100 31.0457 100 20C100 8.9543 91.0457 0 80 0C68.9543 0 60 8.9543 60 20C60 31.0457 68.9543 40 80 40Z" fill="#FDFDFD"/>
<path d="M73.2571 30V21.3429H80.2857L86.3143 30H90L82.8571 19.7429L89.4857 10H85.8L80.2286 18.3429H73.2571V10H70V30H73.2571Z" fill="#FDFDFD"/>
</svg>
