<svg width="48" height="112" viewBox="0 0 48 112" fill="none" xmlns="http://www.w3.org/2000/svg">
<path d="M27.5165 0.524181C28.4542 0.174727 29.304 0 30.0659 0C32.1172 0 33.6117 0.902756 34.5495 2.70827C35.0183 4.22257 35.37 6.20281 35.6044 8.64899C35.8388 11.0952 35.956 13.221 35.956 15.0265V19.1326C38.359 23.2096 40.7326 29.4124 43.0769 37.741C45.4212 46.0697 47.0623 51.428 48 53.8159C48 59.3489 47.0916 64.8237 45.2747 70.2402C43.5165 75.6568 42.0513 80.1414 40.8791 83.6942C39.7656 85.4997 39.0037 87.6547 38.5934 90.1591C38.1832 92.6636 37.978 95.4592 37.978 98.546V103.613C36.5128 105.652 34.6374 107.37 32.3517 108.768C30.0659 110.107 26.6081 111.185 21.978 112L9.84615 108.593C9.84615 107.195 9.55311 104.924 8.96703 101.778C8.38095 98.5751 8.08791 96.3619 8.08791 95.1388C5.56777 92.6344 3.86813 90.0426 2.98901 87.3635C2.1685 84.6843 1.17216 79.9667 0 73.2106C0 68.6677 0.322344 64.3578 0.967033 60.2808C1.61172 56.2038 2.66667 51.923 4.13187 47.4384C6.06593 46.4483 7.9707 45.429 9.84615 44.3807C9.61172 42.9246 9.49451 41.7889 9.49451 40.9735C9.49451 39.7504 9.81685 38.6729 10.4615 37.741C11.1648 36.8092 12.044 36.1394 13.0989 35.7317C14.2125 35.2657 15.5897 35.0328 17.2308 35.0328H19.0769C19.7802 35.7899 20.4249 36.6635 21.011 37.6537C21.6557 38.6438 22.2711 39.7504 22.8571 40.9735C23.326 39.7504 23.619 37.974 23.7363 35.6443C23.8535 33.2564 23.9121 31.8586 23.9121 31.4509L24.7912 22.8892C23.7363 19.5694 22.7106 16.1622 21.7143 12.6677C21.7143 10.6875 22.5641 9.14405 24.2637 8.03744C24.4982 5.99896 24.7619 4.3973 25.0549 3.23245C25.348 2.00936 26.1685 1.1066 27.5165 0.524181ZM28.044 1.22309C26.3443 2.79563 25.6996 4.83411 26.1099 7.33853C27.7509 7.33853 29.304 8.24129 30.7692 10.0468C31.8242 11.6776 32.967 13.2793 34.1978 14.8518V10.3963C34.1978 7.65887 34.022 5.62038 33.6703 4.28081C33.3187 2.883 32.5568 2.00936 31.3846 1.65991C30.2711 1.25221 29.1575 1.1066 28.044 1.22309ZM25.3187 8.56162C23.6777 9.78471 22.8571 11.1534 22.8571 12.6677C22.8571 13.6578 23.3846 15.3177 24.4396 17.6474C25.5531 19.9771 26.1099 21.4332 26.1099 22.0156C26.5788 23.1804 27.2821 23.7629 28.2198 23.7629C30.5055 23.064 32.7912 22.3651 35.0769 21.6661L32.1758 14.8518C31.2381 13.5122 30.2418 12.1435 29.1868 10.7457C28.1905 9.28965 26.9011 8.56162 25.3187 8.56162ZM35.7802 22.8892C34.3736 22.5398 33.0256 22.6854 31.7363 23.3261C30.5055 23.9667 29.3333 24.6074 28.2198 25.2481C27.8681 25.947 27.6923 26.5294 27.6923 26.9953C27.6923 28.1019 27.9853 29.1503 28.5714 30.1404C29.2161 31.1305 29.8315 32.1206 30.4176 33.1108L37.4506 30.752L37.978 31.1014L34.5495 32.5866L39.3846 31.6256C39.033 30.2278 38.7985 29.1794 38.6813 28.4805L35.7802 22.8892ZM25.7582 25.947L26.1099 27.869C26.3443 27.636 26.4029 27.2865 26.2857 26.8206C26.1685 26.3547 25.9927 26.0634 25.7582 25.947ZM25.4945 29.5289C25.2601 30.1113 25.0842 31.1014 24.967 32.4992C24.8498 33.8388 24.7912 34.7998 24.7912 35.3822V40.0998L30.0659 39.9251C29.8315 38.1196 29.5385 36.7509 29.1868 35.819C28.8938 34.8289 28.1026 32.7322 26.8132 29.5289H25.4945ZM39.7363 33.1108C39.3846 32.9943 38.8571 32.936 38.1538 32.936C36.8059 32.936 35.5751 33.1108 34.4615 33.4602C33.4066 33.8097 32.1172 34.3921 30.5934 35.2075C31.0623 37.7119 31.4432 39.4301 31.7363 40.3619C32.0293 41.2356 32.674 42.0801 33.6703 42.8955C34.1392 42.779 34.8425 42.7207 35.7802 42.7207C36.6593 42.7207 37.8022 42.9246 39.2088 43.3323C40.674 43.6817 41.9341 43.973 42.989 44.2059L42.2857 40.9735L39.7363 33.1108ZM13.4506 36.6927C11.6923 37.974 10.9304 39.5174 11.1648 41.3229C12.8059 39.2845 14.9451 38.2652 17.5824 38.2652C18.696 38.2652 19.4872 38.4982 19.956 38.9641C19.4872 37.1004 18.2271 36.1685 16.1758 36.1685C15.3553 36.1685 14.4469 36.3432 13.4506 36.6927ZM16.5275 40.0998C15.707 40.3328 14.9744 40.7405 14.3297 41.3229C13.7436 41.9054 13.1575 42.7499 12.5714 43.8565C12.1026 44.6719 12.2198 45.196 12.9231 45.429C13.6264 45.662 14.7692 45.9532 16.3516 46.3027C16.1172 45.6037 16.3223 44.9048 16.967 44.2059C17.6117 43.507 18.315 42.779 19.0769 42.0218C18.1978 41.4394 17.348 40.7988 16.5275 40.0998ZM27.1648 40.7988C26.4615 41.0317 25.8755 41.2064 25.4066 41.3229C24.9963 41.4394 24.7326 41.6724 24.6154 42.0218C25.2015 42.3713 25.9341 42.4295 26.8132 42.1966C27.7509 41.9636 28.718 41.6724 29.7143 41.3229C28.1319 40.9735 27.2821 40.7988 27.1648 40.7988ZM21.5385 42.8955C20.8352 44.2351 20.2491 45.196 19.7802 45.7785C19.3114 46.3609 18.6374 46.9724 17.7582 47.6131C16.8205 48.1955 15.6484 48.079 14.2418 47.2637C12.8938 46.39 11.9853 46.0697 11.5165 46.3027V47.4384C14.0366 50.7582 16.4103 53.0005 18.6374 54.1654C20.8645 55.272 22.9158 55.6505 24.7912 55.3011C24.7912 55.767 24.4396 56.1165 23.7363 56.3495C23.3846 57.2813 23.619 58.1258 24.4396 58.883C25.3187 59.5819 26.1099 60.2226 26.8132 60.805C26.5788 61.038 26.3736 61.1836 26.1978 61.2418C26.022 61.3001 25.8755 61.3292 25.7582 61.3292C25.8755 62.4358 26.3736 63.5424 27.2527 64.649C28.1319 65.6973 28.8059 66.5127 29.2747 67.0952L28.9231 67.4446C27.6337 66.9787 26.5201 66.105 25.5824 64.8237C24.7033 63.4841 24.0879 62.4649 23.7363 61.766C19.8681 66.7748 17.9341 72.5408 17.9341 79.064C17.9341 82.908 18.6081 86.1986 19.956 88.936C20.7766 89.0525 22.2125 89.3437 24.2637 89.8097C26.315 90.2756 27.8095 90.5086 28.7473 90.5086C29.8608 90.5086 30.9451 90.3339 32 89.9844C35.7509 87.8294 37.978 85.0629 38.6813 81.6849C39.3846 78.2486 39.7363 73.5018 39.7363 67.4446C39.619 67.6776 39.4139 67.8523 39.1209 67.9688C38.8278 68.0853 38.5055 68.2018 38.1538 68.3183C38.7399 67.5029 39.2381 66.6292 39.6484 65.6973C40.0586 64.7072 40.2637 63.8045 40.2637 62.9891C40.2637 62.5231 40.2051 62.1154 40.0879 61.766L30.5934 49.7098L28.044 52.7676C26.6374 53.35 25.7289 53.4082 25.3187 52.9423L29.5385 47.4384C28.8938 46.6812 27.5751 45.8367 25.5824 44.9048C23.6484 43.973 22.3004 43.3032 21.5385 42.8955ZM27.1648 43.3323C27.1648 43.7982 27.6044 44.1477 28.4835 44.3807C29.4212 44.6136 29.7729 44.2642 29.5385 43.3323H27.1648ZM17.7582 45.6037C19.1062 44.9048 19.6044 44.2059 19.2527 43.507C18.9011 43.6235 18.4908 43.9438 18.022 44.468C17.6117 44.9922 17.5238 45.3708 17.7582 45.6037ZM37.4506 44.0312L35.0769 43.507L34.7253 43.8565L37.4506 44.0312ZM30.7692 43.8565C30.5348 44.0894 30.359 44.4389 30.2418 44.9048C30.1245 45.3708 30.2418 45.7202 30.5934 45.9532C31.0623 45.9532 31.8242 45.429 32.8791 44.3807C32.4103 43.9147 31.707 43.74 30.7692 43.8565ZM43.6923 46.6521C43.3407 46.5356 42.1978 46.2153 40.2637 45.6911C38.3883 45.1669 36.9524 44.9048 35.956 44.9048C34.5495 44.9048 33.4066 45.3708 32.5275 46.3027C32.293 47.2928 32.5568 48.3411 33.3187 49.4477C34.1392 50.4961 34.7839 51.428 35.2528 52.2434C35.7216 53.0588 36.63 53.4665 37.978 53.4665C38.7985 53.4665 40.0293 53.1752 41.6703 52.5928C43.37 52.0104 44.6593 51.7192 45.5385 51.7192L45.011 48.6615L43.6923 46.6521ZM8.79121 46.3027C7.44322 46.9433 6.27106 47.584 5.27473 48.2247C4.27839 48.8653 3.78022 49.9719 3.78022 51.5445C3.42857 52.1269 3.25275 52.7676 3.25275 53.4665C3.25275 54.3401 3.48718 55.1264 3.95604 55.8253C4.42491 56.5242 5.0696 56.8736 5.89011 56.8736C4.83517 55.7088 4.21978 54.9225 4.04396 54.5148C3.86813 54.0489 3.89744 53.5247 4.13187 52.9423L4.83517 53.117C4.83517 52.884 4.83517 52.4181 4.83517 51.7192C4.83517 51.0203 5.0696 50.5835 5.53846 50.4087C6.24176 54.1362 7.2674 57.2522 8.61539 59.7566C9.96337 62.2611 11.0183 64.1831 11.7802 65.5226C12.5421 66.804 13.4799 67.5611 14.5934 67.7941C14.0659 67.4446 13.8022 66.7457 13.8022 65.6973V63.688C14.0366 62.1154 14.9451 61.5913 16.5275 62.1154C16.293 60.3099 16.1465 58.8539 16.0879 57.7473C16.0293 56.5824 15.7656 55.3885 15.2967 54.1654C14.4176 53.5829 13.5385 52.7676 12.6593 51.7192C11.7802 50.6126 10.4908 48.8071 8.79121 46.3027ZM28.3956 51.195L29.5385 49.1856L27.8681 51.3697L28.3956 51.195ZM45.5385 53.117C43.0183 53.117 40.381 53.7285 37.6264 54.9516L39.7363 57.7473C40.967 57.7473 42.2271 57.3687 43.5165 56.6115C44.8645 55.8544 45.8315 55.3593 46.4176 55.1264L45.5385 53.117ZM18.1978 61.1544C18.4322 58.65 18.9011 57.0484 19.6044 56.3495C18.9011 56 18.315 55.8835 17.8462 56C17.4359 56.1165 17.2308 56.4077 17.2308 56.8736C17.4652 58.3297 17.7875 59.7566 18.1978 61.1544ZM44.4835 57.3978H45.1868C45.4212 58.0385 44.9231 58.5918 43.6923 59.0577C42.5201 59.5237 41.8755 60.0478 41.7582 60.6303C42.2271 61.7369 42.4615 63.222 42.4615 65.0858C42.3443 68.2309 42.2271 71.2886 42.1099 74.259C43.1648 70.2985 44.044 66.9204 44.7473 64.1248C45.5092 61.3292 46.0659 58.9121 46.4176 56.8736C45.8315 56.7572 45.3919 56.7863 45.0989 56.961C44.8059 57.1357 44.6007 57.2813 44.4835 57.3978ZM6.24176 58.883C6.00733 58.7665 5.53846 58.4171 4.83517 57.8346C4.13187 57.194 3.51648 57.1648 2.98901 57.7473C2.87179 58.5044 2.54945 60.2808 2.02198 63.0764C1.49451 65.8721 1.23077 68.0562 1.23077 69.6287V71.5507C2.40293 76.7925 3.42857 81.2772 4.30769 85.0047C5.24542 88.674 7.03297 91.7026 9.67033 94.0905H11.8681C13.685 94.0905 15.2674 93.8866 16.6154 93.4789C18.022 93.0712 19.1941 92.2559 20.1319 91.0328C17.7289 86.5481 16.5275 81.8596 16.5275 76.9672C16.5275 74.4628 16.8205 72.3661 17.4066 70.6771C16.9377 71.6089 16.4982 72.5991 16.0879 73.6474C15.6777 74.6376 15.5311 75.5403 15.6484 76.3557C15.7656 77.3458 15.8242 78.0738 15.8242 78.5398C15.8242 79.1222 15.6484 79.5299 15.2967 79.7629C14.4176 78.831 13.978 77.6953 13.978 76.3557C13.978 75.1908 14.1832 74.026 14.5934 72.8612C15.0623 71.6381 15.5311 70.4441 16 69.2793L14.5934 69.6287C13.7143 68.7551 12.9231 68.3183 12.2198 68.3183C11.3993 68.3183 10.5201 68.988 9.58242 70.3276C8.7033 71.6089 8.08791 72.3661 7.73626 72.5991L7.38462 72.0749L10.6374 67.2699C9.75824 66.105 8.96703 64.7655 8.26374 63.2512C7.56044 61.7369 6.88645 60.2808 6.24176 58.883ZM20.1319 59.2325C19.5458 59.8149 19.6044 61.1253 20.3077 63.1638C20.7766 63.0473 21.1868 62.7852 21.5385 62.3775C21.9487 61.9698 22.4469 61.0962 23.033 59.7566C22.7985 59.2907 22.3297 59.0868 21.6264 59.1451C20.9817 59.2033 20.4835 59.2325 20.1319 59.2325ZM15.8242 63.8627C15.1209 64.0957 14.8278 64.5616 14.9451 65.2605C15.1795 65.9012 15.4725 66.5127 15.8242 67.0952C16.7619 66.7457 17.2894 66.1342 17.4066 65.2605C17.2894 64.9111 17.1429 64.5034 16.967 64.0374C16.7912 63.5715 16.4103 63.5133 15.8242 63.8627ZM33.1429 91.6443H34.5495C34.5495 91.3531 34.5495 91.0328 34.5495 90.6833C33.7289 90.4503 33.2601 90.7707 33.1429 91.6443ZM33.6703 104.312C34.022 102.274 34.1978 100.468 34.1978 98.8955C34.0806 96.2746 34.022 94.207 34.022 92.6927C33.4359 94.8476 33.1429 97.0608 33.1429 99.3323C33.1429 101.196 33.3187 102.856 33.6703 104.312ZM24.4396 94.0905C24.3223 93.6245 24.1172 93.4498 23.8242 93.5663C23.5311 93.6828 23.2674 93.7993 23.033 93.9158V109.466C23.2674 109.466 23.7363 109.408 24.4396 109.292V94.0905ZM25.4945 94.0905C25.4945 95.3136 25.4652 96.5658 25.4066 97.8471C25.348 99.0702 25.3187 100.322 25.3187 101.604C25.3187 104.458 25.5824 106.904 26.1099 108.942L28.3956 108.593C29.978 108.243 31.0916 107.603 31.7363 106.671C32.381 105.681 32.7033 104.487 32.7033 103.089C32.7033 102.099 32.5275 100.468 32.1758 98.1966C31.8242 95.9251 31.7656 94.3235 32 93.3916L25.4945 94.0905ZM21.3626 93.9158C21.3626 95.7213 21.304 97.4977 21.1868 99.2449C21.0696 100.934 20.9524 102.623 20.8352 104.312C20.8352 106.118 21.011 107.894 21.3626 109.641C22.1245 106.205 22.5055 102.943 22.5055 99.8565L22.1538 93.9158H21.3626ZM15.6484 96.7988C14.9451 97.1482 13.978 97.3229 12.7473 97.3229C11.6923 97.3229 10.989 96.9152 10.6374 96.0998C10.6374 97.7306 10.7546 99.6817 10.989 101.953C11.2234 104.225 11.4579 106.205 11.6923 107.894L19.6044 109.466C19.7216 108.768 19.8388 107.253 19.956 104.924C20.0733 102.594 20.1319 101.371 20.1319 101.254V94.6147L15.6484 96.7988ZM15.6484 80.3744L18.1978 87.4509C17.6703 87.1014 17.2015 86.3443 16.7912 85.1794C16.381 83.9563 16 82.8206 15.6484 81.7722V80.3744ZM23.9121 53.117C24.2637 52.0686 24.9084 51.0203 25.8462 49.9719C26.8425 48.8653 27.9267 48.0208 29.0989 47.4384C28.044 48.1373 27.0476 49.0983 26.1099 50.3214C25.2308 51.4862 24.4982 52.4181 23.9121 53.117ZM27.8681 53.8159C28.1026 52.884 28.9524 52.0686 30.4176 51.3697C30.1832 52.0686 29.3333 52.884 27.8681 53.8159Z" fill="#FDFDFD"/>
</svg>
